<?xml version="1.0" encoding="utf-8"?>
<!-- Generator: Adobe Illustrator 22.1.0, SVG Export Plug-In . SVG Version: 6.00 Build 0)  -->
<svg version="1.1" id="Layer_1" xmlns="http://www.w3.org/2000/svg" xmlns:xlink="http://www.w3.org/1999/xlink" x="0px" y="0px"
	 viewBox="0 0 1020.4 388.7" style="enable-background:new 0 0 1020.4 388.7;" xml:space="preserve">
<style type="text/css">
	.st0{fill:#B8D841;}
</style>
<path class="st0" d="M1019.9,309.5c-1.4-50.5-4.2-100.8-5.5-150.9c-0.6-25.3-3.1-50.4-4.3-75.6c-1-20.6,2-47.3-14.4-61.8
	c-8.1-7.1-18.1-9.2-28.3-10.9c-11.2-1.9-22.5-2.9-33.9-3.6c-23.5-1.4-47.1-1.9-70.7-2.6C814.4,2.9,766,1.7,717.3,0.7
	c-47.7-1-95.5-0.6-143.5-0.4C525.5,0.5,477-0.6,428.3,0.5s-97.6,3.4-146.7,4.9C232.9,6.8,184,7.2,135,7.9C123,8,111.1,8.1,99.2,8.3
	c-12,0.2-23.8-1.1-35.9-0.6c-21.2,1-45.6-1.3-58.6,20.9c-5.5,9.4-5,20.6-4.3,30.8c0.8,12.5,1.5,24.8,1.2,37.5
	C1,122-0.1,147.1,0.8,172.3c0.4,12,1.4,23.9,2.1,35.9c1.9,34.9-0.3,70.5,2.9,105.3c1.4,16.1,3,34.2,9.8,48.6
	c19.5,41.5,116.6,22,152,22.2c63.8,0.4,127.6,0.7,191.4,1.1c74.3,0,148.6,0.8,222.9,1.3c37.2,0.2,74.3,0.4,111.5,0.6
	c10.5,0.1,73.6-11.1,81.2-3.5c0.5,0.4,131-2.4,130.9-3.2c26.5-0.7,55.3-1.3,81-9.2c11.4-3.5,23.4-9.5,29.5-21.2
	C1022.1,338.2,1020.2,322.4,1019.9,309.5z"/>
</svg>
