<?xml version="1.0" encoding="utf-8"?>
<!-- Generator: Adobe Illustrator 22.1.0, SVG Export Plug-In . SVG Version: 6.00 Build 0)  -->
<svg version="1.1" id="Capa_1" xmlns="http://www.w3.org/2000/svg" xmlns:xlink="http://www.w3.org/1999/xlink" x="0px" y="0px"
	 viewBox="0 0 647.7 989" style="enable-background:new 0 0 647.7 989;" xml:space="preserve">
<style type="text/css">
	.st0{fill:#C2CD47;}
</style>
<path class="st0" d="M149.3,938.4c76.5-1.3,152.7-3.8,228.7-4.9c38.4-0.6,76.4-2.8,114.5-3.9c31.2-0.9,71.6,1.8,93.6-12.9
	c10.8-7.3,13.9-16.3,16.5-25.4c2.9-10.1,4.4-20.2,5.4-30.4c2.2-21.1,2.9-42.3,3.9-63.5c2.1-43.4,3.9-86.9,5.4-130.6
	c1.4-42.8,1-85.7,0.6-128.8c-0.4-43.4,1.4-86.9-0.2-130.6c-1.6-43.7-5.1-87.6-7.4-131.6c-2.3-43.7-2.9-87.7-3.8-131.7
	c-0.2-10.7-0.4-21.4-0.7-32.1c-0.3-10.8,1.6-21.4,0.8-32.2c-1.4-19,2.1-40.9-31.5-52.6c-14.3-5-31.2-4.5-46.7-3.9
	c-19,0.7-37.6,1.3-56.8,1c-38.1-0.6-76.1-1.5-114.3-0.7c-18.2,0.4-36.2,1.2-54.4,1.9c-52.9,1.7-106.8-0.2-159.6,2.6
	C119,29.5,91.5,30.9,69.7,37C6.8,54.5,36.3,141.7,36,173.5c-0.6,57.3-1.1,114.5-1.7,171.8c0,66.7-1.3,133.4-1.9,200.1
	c-0.3,33.3-0.6,66.7-1,100c-0.1,9.4,16.9,66,5.4,72.9c-0.7,0.4,3.7,117.6,4.9,117.5c1.1,23.7,2,49.6,14,72.7
	c5.3,10.2,14.5,21,32.1,26.5C105.8,940.4,129.8,938.8,149.3,938.4z"/>
</svg>
