<?xml version="1.0" encoding="utf-8"?>
<!-- Generator: Adobe Illustrator 22.1.0, SVG Export Plug-In . SVG Version: 6.00 Build 0)  -->
<svg version="1.1" id="Layer_1" xmlns="http://www.w3.org/2000/svg" xmlns:xlink="http://www.w3.org/1999/xlink" x="0px" y="0px"
	 viewBox="0 0 147.7 326" style="enable-background:new 0 0 147.7 326;" xml:space="preserve">
<style type="text/css">
	.st0{opacity:0.2;}
	.st1{fill:#00E8C6;}
	.st2{fill:#17E0CD;}
	.st3{fill:#404B52;}
	.st4{fill:#3D3D3D;}
</style>
<g>
	<g class="st0">
		<rect x="12" y="11.1" transform="matrix(0.9852 -0.1716 0.1716 0.9852 -11.2114 13.5)" width="121" height="121"/>
		<rect x="12" y="11.1" transform="matrix(0.9852 -0.1716 0.1716 0.9852 -11.2114 13.5)" width="121" height="121"/>
		<path d="M52,79.7c-0.1-0.8,0.5-2.2,1-2.3c0.2,0,0.3,0.1,0.4,0.3c0.1,0.1,0.9,0.7,2.2,0.5c1.4-0.3,2.3-1.4,2-2.9
			C57,71,48.3,72.4,47.1,65.2c-0.8-4.7,3.4-10.5,8.2-11.3c2.8-0.5,4.8,1,5.2,3.8c0.7,3.9-3.2,8.4-5.4,8.8c-1.2,0.2-2.2-1-2.3-1.7
			c-0.1-0.6,0.3-0.3,0.9-0.4c1.9-0.3,4.6-3.9,4.2-6.2c-0.2-1.2-0.9-1.8-2.3-1.6c-2.6,0.5-6.4,4.3-5.7,8.2c1,5.5,9.6,4.1,10.7,10
			c0.5,2.9-1.4,5.6-4.4,6.1C53.1,81.3,52,79.9,52,79.7z"/>
		<path d="M63.9,61.6c-0.2,0.5-0.7,0.8-1.1,0.8c-1,0.2-1.5-0.2-1.5-0.6c0-0.2,0.1-0.4,0.2-0.6l2.6-4.3c0-0.4,0.6-0.8,1-0.9
			c0.7-0.1,1.5,0.2,1.6,0.8c0.1,0.3-0.2,0.5-0.3,0.8L63.9,61.6z M67.5,74.4c0.1,0.3,0.3,1.6,1.2,1.5c1.4-0.2,1.7-2.6,1.7-4.2
			c0-2.2,2.2-0.9,2.2,0.3c-0.2,2.4-1.1,5.9-4.1,6.4c-1.9,0.3-3.2-1-3.5-2.8l-1.6-9.4c-0.1-0.7-0.3-0.9-0.3-1.1
			c-0.1-0.4,0.3-0.7,0.8-0.8c1.2-0.2,2,0.4,2.2,1.2L67.5,74.4z"/>
		<path d="M78.2,69.9c0.1-1.6,0.5-3.8,0.8-5.7c-0.4-0.5-0.7-1-0.9-1.6c-0.2-1.2,1.6-3.1,2.5-3.3c0.8-0.1,1.4,0.4,1.5,1.4
			c0.2,1-0.4,2.3-0.4,2.5c2.2,2.6,4.5,3.5,5.1,6.9c0.1,0.4,0.1,0.9,0,1.3c1.6-0.6,2.3-1.8,2.5-3c0.1-0.7,0.3-1,0.6-1.1
			c0.6-0.1,1.4,0.7,1.5,1.2c0.1,0.7-0.5,2.2-1.1,3c-0.9,1.1-2.3,2-4.4,2.5c-0.7,0.9-1.8,1.6-3.2,1.9c-1.5,0.3-3.3-0.3-4.1-0.8
			c-2-1.4-1.4-3.4-0.6-3.5c0.7-0.1,4.3,1.4,6,1.1c0.3-0.5,0.6-1.4,0.4-2.3c-0.4-2.2-2-3.5-3.4-4.5c-0.3,1.5-0.5,2.7-0.6,4.5
			C80.2,71.8,78.1,71.2,78.2,69.9z"/>
		<path d="M92.7,69.5c0.7,1.1,1.8,1.9,3.7,1.6c2.8-0.5,3.5-3,3.5-5.2c0-1.6,2.1-1.3,2.2,0c0.1,2.2-0.5,6.7-5.7,7.6
			C93.2,74,89.7,72,89,67.6c-0.8-4.5,1.3-8.3,4-8.8c2-0.3,3.4,0.9,3.8,3C97.2,64.4,96,67.8,92.7,69.5z M92,67.6
			c1.6-1.1,2.4-3.2,2.1-5.3c-0.1-0.8-0.5-1.2-1-1.1c-1.7,0.3-1.6,4.3-1.3,5.7C91.9,67.2,91.9,67.4,92,67.6z"/>
		<path d="M47.9,111.2l2,11.5c0.2,1.3-0.9,1.8-1.6,1.9s-0.9-0.3-1-0.8L43,99.1c-0.2-1-0.5-1-0.6-1.3s0.6-0.5,1.1-0.6
			c1.1-0.2,2,0.4,2.2,1.2c0.6-1.2,1.4-2.2,2.9-2.4c2.8-0.5,4.6,2,5.2,5.5c0.3,2,0.3,4,0,5.3c2.3-0.5,2.7-1.5,3.2-3.3
			c0.2-0.7,0.3-1,0.6-1.1c0.6-0.1,1.4,0.6,1.5,1.1c0.3,1.6-1.4,4.9-6.1,5.7c-0.8,1.2-2,2-3.3,2.2C48.8,111.6,48.2,111.5,47.9,111.2z
			 M46.3,101.9l1.3,7.6c0.4-0.8,1.5-1.4,3.1-1.8c0.6-1.4,0.6-3.9,0.4-5.2c-0.6-3.2-1.8-4.2-3-4C47,98.7,46.3,100.1,46.3,101.9z"/>
		<path d="M64.4,105.9c-0.6,1.6-1.5,2.9-3.1,3.2c-2.4,0.4-4.1-1.4-4.6-4.4c-0.7-3.7-0.1-8.2-0.1-8.2c0.1-0.6-0.2-1.3,1.6-1.6
			c1.7-0.3,1,1.3,0.9,1.8c-0.2,2.7-0.3,4.3,0.2,7.3c0.3,1.9,1.1,2.8,2.1,2.6c1.4-0.2,2.1-2.7,2.1-5.3l-1-5.7c-0.2-1-0.5-1-0.6-1.3
			s0.6-0.5,1.1-0.6c1.2-0.2,2,0.4,2.2,1.2l1.6,9c0.1,0.3,0.3,1.6,1.2,1.5c1.4-0.2,1.7-2.6,1.7-4.2c0-0.8,0.3-1.1,0.7-1.2
			c0.6-0.1,1.4,0.6,1.5,1.2c0,0,0,0.1,0,0.3c-0.2,2.4-1.1,5.9-4.1,6.4C66.1,108.2,64.8,107.3,64.4,105.9z"/>
		<path d="M72.9,102.4c0.7,1.1,1.8,1.9,3.7,1.6c2.8-0.5,3.5-3,3.5-5.2c0-1.6,2.1-1.3,2.2,0c0.1,2.2-0.5,6.7-5.7,7.6
			c-3.2,0.6-6.7-1.5-7.5-5.9c-0.8-4.5,1.3-8.3,4-8.8c2-0.3,3.4,0.9,3.8,3C77.4,97.3,76.2,100.7,72.9,102.4z M72.2,100.5
			c1.6-1.1,2.4-3.2,2.1-5.3c-0.1-0.8-0.5-1.2-1-1.1c-1.7,0.3-1.6,4.3-1.3,5.7C72.1,100.1,72.1,100.3,72.2,100.5z"/>
		<path d="M79.7,100c-0.9-5.4,1.8-9.1,5.6-10.3l-1.4-8c-0.2-1-0.5-1-0.6-1.3s0.6-0.5,1.1-0.6c1.2-0.2,2,0.4,2.2,1.2l3.3,19
			c0.1,0.8,0.6,1.6,1.5,1.4c1.4-0.2,1.7-2.6,1.7-4.2c0-0.8,0.3-1.1,0.7-1.2c0.6-0.1,1.4,0.6,1.5,1.2c0,0,0,0.1,0,0.3
			c-0.2,2.4-1.1,5.9-4.1,6.4c-1.2,0.2-2.3-0.2-2.9-0.9c-0.6,0.9-1.6,1.7-2.9,1.9C82.5,105.3,80.4,103.7,79.7,100z M87.2,100.7
			L85.7,92c-2.2,0.8-4.1,2.9-3.3,7.3c0.4,2.5,1.8,3.4,3,3.2C86.3,102.3,86.9,101.6,87.2,100.7z"/>
		<path d="M96.3,98.3c0.7,1.1,1.8,1.9,3.7,1.6c2.8-0.5,3.5-3,3.5-5.2c0-1.6,2.1-1.3,2.2,0c0.1,2.2-0.5,6.7-5.7,7.6
			c-3.2,0.6-6.7-1.5-7.5-5.9c-0.8-4.5,1.3-8.3,4-8.8c2-0.3,3.4,0.9,3.8,3C100.8,93.2,99.6,96.7,96.3,98.3z M95.6,96.4
			c1.6-1.1,2.4-3.2,2.1-5.3c-0.1-0.8-0.5-1.2-1-1.1c-1.7,0.3-1.6,4.3-1.3,5.7C95.5,96,95.5,96.2,95.6,96.4z"/>
		<path d="M109.4,94.2c0.2,0.9-0.3,1.4-0.9,1.5c-0.7,0.1-1.7-0.4-1.9-1.3l-3-17.4c-0.1-0.7-0.5-0.9-0.5-1.2c0-0.2,0.2-0.5,1-0.6
			c1-0.2,2,0,2.2,1.1L109.4,94.2z M110.5,98.5c0.2,0.9-0.5,1.8-1.4,2c-0.9,0.2-1.8-0.5-2-1.4c-0.2-1,0.5-1.8,1.4-2
			C109.5,97,110.4,97.6,110.5,98.5z"/>
		<path d="M106.7,37c1.4-1.8,2.7-5.4,0.1-6.9c-2.2-1.3-4.4,0-6.5,1.4c0.8-3.9,0.9-8.2-4.6-7.3c-7.1,1.1-7.1,9.5-5.6,14.8
			c0.5,1.6,2.8,1,2.5-0.6c-0.7-3.5-1.9-7.5,1.2-10.2c1.8-1.5,4.9-1.8,4.4,1.6c-0.3,1.5-0.9,3-1.3,4.5c-0.3,1.1,0.9,2.1,2,1.5
			c1.5-0.8,2.8-1.9,4.2-2.7c0.4-0.2,2.7-1.6,2.5,0.2c-0.1,0.8-0.7,1.6-1.2,2.3c-1.2,1.7-2.9,2.9-4.5,4c-0.9,0.6-6.2,3.4-7.1,1.2
			c-0.4-0.9-2-0.9-1.9,0.2c0.2,3,3.9,3.2,6.3,2.6C100.8,42.7,104.4,39.9,106.7,37z"/>
		<path d="M78.5,23.1c-1.8,0.6-2.2,2.1-2.2,3.7c-0.9-0.7-2-1.2-3.4-1.4c-2.4-0.4-3.6,2-4,3.9c-1.1,5.6,5.5,11,10.6,11.4
			c0.6,0,1-0.2,1.2-0.5c1-0.1,1.8-1.3,2.4-2.5c1.2-2.8,1.7-6,1.2-9C83.8,26,82,22,78.5,23.1z M82.2,30.7c0.2,1-0.2,2.2-0.4,3.3
			c-0.1,0.5-0.6,3.9-1.4,4.2c-0.2-0.2-0.4-0.3-0.7-0.4c-2.7-0.6-7.4-2.9-8.2-5.8c-0.3-1.1-0.5-3.3,0.7-4c1.8-1.1,4.1,2.3,4.8,3.5
			c0.7,1.2,2.6,0.7,2.3-0.7c-0.3-1.6-1-3.4-0.5-5c0.6-2.2,2.7,1.8,2.8,2.1C81.9,28.8,82,29.8,82.2,30.7z"/>
		<path d="M108.1,287.6c-3.5,0-3.4,5.5,0.1,5.4C111.7,293,111.6,287.5,108.1,287.6z"/>
		<path d="M132.2,284.1c-3.7,0-3.7,5.8,0.1,5.8C136,289.9,135.9,284.1,132.2,284.1z"/>
		<path d="M145,299.1c-5.6,8.7-8.4,18.1-19,22.3c-12.3,4.9-21.7-7.5-27-16.7c-1-1.7-3.4-0.2-2.5,1.5c5.1,10.6,13.7,23.3,27.3,21.2
			c12-1.8,24.3-14.2,26.4-26.3C150.7,298.1,146.8,296.3,145,299.1z"/>
	</g>
	<g>
		<g>
			
				<rect x="10.2" y="9.4" transform="matrix(0.9852 -0.1716 0.1716 0.9852 -10.9404 13.1778)" class="st1" width="121" height="121"/>
			
				<rect x="10.2" y="9.4" transform="matrix(0.9852 -0.1716 0.1716 0.9852 -10.9404 13.1778)" class="st2" width="121" height="121"/>
			<g>
				<path class="st3" d="M50.3,78c-0.1-0.8,0.5-2.2,1-2.3c0.2,0,0.3,0.1,0.4,0.3c0.1,0.1,0.9,0.7,2.2,0.5c1.4-0.3,2.3-1.4,2-2.9
					c-0.7-4.2-9.4-2.9-10.6-10.1c-0.8-4.7,3.4-10.5,8.2-11.3c2.8-0.5,4.8,1,5.2,3.8c0.7,3.9-3.2,8.4-5.4,8.8c-1.2,0.2-2.2-1-2.3-1.7
					c-0.1-0.6,0.3-0.3,0.9-0.4c1.9-0.3,4.6-3.9,4.2-6.2c-0.2-1.2-0.9-1.8-2.3-1.6c-2.6,0.5-6.4,4.3-5.7,8.2c1,5.5,9.6,4.1,10.7,10
					c0.5,2.9-1.4,5.6-4.4,6.1C51.4,79.6,50.3,78.2,50.3,78z"/>
				<path class="st3" d="M62.2,59.8c-0.2,0.5-0.7,0.8-1.1,0.8c-1,0.2-1.5-0.2-1.5-0.6c0-0.2,0.1-0.4,0.2-0.6l2.6-4.3
					c0-0.4,0.6-0.8,1-0.9c0.7-0.1,1.5,0.2,1.6,0.8c0.1,0.3-0.2,0.5-0.3,0.8L62.2,59.8z M65.8,72.7c0.1,0.3,0.3,1.6,1.2,1.5
					c1.4-0.2,1.7-2.6,1.7-4.2c0-2.2,2.2-0.9,2.2,0.3c-0.2,2.4-1.1,5.9-4.1,6.4c-1.9,0.3-3.2-1-3.5-2.8l-1.6-9.4
					c-0.1-0.7-0.3-0.9-0.3-1.1c-0.1-0.4,0.3-0.7,0.8-0.8c1.2-0.2,2,0.4,2.2,1.2L65.8,72.7z"/>
				<path class="st3" d="M76.5,68.2c0.1-1.6,0.5-3.8,0.8-5.7c-0.4-0.5-0.7-1-0.9-1.6c-0.2-1.2,1.6-3.1,2.5-3.3
					c0.8-0.1,1.4,0.4,1.5,1.4c0.2,1-0.4,2.3-0.4,2.5c2.2,2.6,4.5,3.5,5.1,6.9c0.1,0.4,0.1,0.9,0,1.3c1.6-0.6,2.3-1.8,2.5-3
					c0.1-0.7,0.3-1,0.6-1.1c0.6-0.1,1.4,0.7,1.5,1.2c0.1,0.7-0.5,2.2-1.1,3c-0.9,1.1-2.3,2-4.4,2.5c-0.7,0.9-1.8,1.6-3.2,1.9
					c-1.5,0.3-3.3-0.3-4.1-0.8c-2-1.4-1.4-3.4-0.6-3.5c0.7-0.1,4.3,1.4,6,1.1c0.3-0.5,0.6-1.4,0.4-2.3c-0.4-2.2-2-3.5-3.4-4.5
					c-0.3,1.5-0.5,2.7-0.6,4.5C78.5,70.1,76.4,69.4,76.5,68.2z"/>
				<path class="st3" d="M91,67.7c0.7,1.1,1.8,1.9,3.7,1.6c2.8-0.5,3.5-3,3.5-5.2c0-1.6,2.1-1.3,2.2,0c0.1,2.2-0.5,6.7-5.7,7.6
					c-3.2,0.6-6.7-1.5-7.5-5.9c-0.8-4.5,1.3-8.3,4-8.8c2-0.3,3.4,0.9,3.8,3C95.5,62.7,94.3,66.1,91,67.7z M90.2,65.9
					c1.6-1.1,2.4-3.2,2.1-5.3c-0.1-0.8-0.5-1.2-1-1.1c-1.7,0.3-1.6,4.3-1.3,5.7C90.1,65.5,90.2,65.7,90.2,65.9z"/>
				<path class="st3" d="M46.2,109.5l2,11.5c0.2,1.3-0.9,1.8-1.6,1.9s-0.9-0.3-1-0.8l-4.3-24.6c-0.2-1-0.5-1-0.6-1.3
					s0.6-0.5,1.1-0.6c1.1-0.2,2,0.4,2.2,1.2c0.6-1.2,1.4-2.2,2.9-2.4c2.8-0.5,4.6,2,5.2,5.5c0.3,2,0.3,4,0,5.3
					c2.3-0.5,2.7-1.5,3.2-3.3c0.2-0.7,0.3-1,0.6-1.1c0.6-0.1,1.4,0.6,1.5,1.1c0.3,1.6-1.4,4.9-6.1,5.7c-0.8,1.2-2,2-3.3,2.2
					C47.1,109.9,46.5,109.7,46.2,109.5z M44.5,100.1l1.3,7.6c0.4-0.8,1.5-1.4,3.1-1.8c0.6-1.4,0.6-3.9,0.4-5.2c-0.6-3.2-1.8-4.2-3-4
					C45.3,97,44.6,98.4,44.5,100.1z"/>
				<path class="st3" d="M62.6,104.2c-0.6,1.6-1.5,2.9-3.1,3.2c-2.4,0.4-4.1-1.4-4.6-4.4c-0.7-3.7-0.1-8.2-0.1-8.2
					c0.1-0.6-0.2-1.3,1.6-1.6c1.7-0.3,1,1.3,0.9,1.8c-0.2,2.7-0.3,4.3,0.2,7.3c0.3,1.9,1.1,2.8,2.1,2.6c1.4-0.2,2.1-2.7,2.1-5.3
					l-1-5.7c-0.2-1-0.5-1-0.6-1.3s0.6-0.5,1.1-0.6c1.2-0.2,2,0.4,2.2,1.2l1.6,9c0.1,0.3,0.3,1.6,1.2,1.5c1.4-0.2,1.7-2.6,1.7-4.2
					c0-0.8,0.3-1.1,0.7-1.2c0.6-0.1,1.4,0.6,1.5,1.2c0,0,0,0.1,0,0.3c-0.2,2.4-1.1,5.9-4.1,6.4C64.4,106.5,63.1,105.6,62.6,104.2z"
					/>
				<path class="st3" d="M71.2,100.6c0.7,1.1,1.8,1.9,3.7,1.6c2.8-0.5,3.5-3,3.5-5.2c0-1.6,2.1-1.3,2.2,0c0.1,2.2-0.5,6.7-5.7,7.6
					c-3.2,0.6-6.7-1.5-7.5-5.9c-0.8-4.5,1.3-8.3,4-8.8c2-0.3,3.4,0.9,3.8,3C75.7,95.6,74.5,99,71.2,100.6z M70.4,98.8
					c1.6-1.1,2.4-3.2,2.1-5.3c-0.1-0.8-0.5-1.2-1-1.1c-1.7,0.3-1.6,4.3-1.3,5.7C70.3,98.3,70.4,98.6,70.4,98.8z"/>
				<path class="st3" d="M78,98.2c-0.9-5.4,1.8-9.1,5.6-10.3l-1.4-8c-0.2-1-0.5-1-0.6-1.3s0.6-0.5,1.1-0.6c1.2-0.2,2,0.4,2.2,1.2
					l3.3,19c0.1,0.8,0.6,1.6,1.5,1.4c1.4-0.2,1.7-2.6,1.7-4.2c0-0.8,0.3-1.1,0.7-1.2c0.6-0.1,1.4,0.6,1.5,1.2c0,0,0,0.1,0,0.3
					c-0.2,2.4-1.1,5.9-4.1,6.4c-1.2,0.2-2.3-0.2-2.9-0.9c-0.6,0.9-1.6,1.7-2.9,1.9C80.8,103.6,78.6,102,78,98.2z M85.5,99L84,90.3
					c-2.2,0.8-4.1,2.9-3.3,7.3c0.4,2.5,1.8,3.4,3,3.2C84.6,100.6,85.1,99.8,85.5,99z"/>
				<path class="st3" d="M94.6,96.6c0.7,1.1,1.8,1.9,3.7,1.6c2.8-0.5,3.5-3,3.5-5.2c0-1.6,2.1-1.3,2.2,0c0.1,2.2-0.5,6.7-5.7,7.6
					c-3.2,0.6-6.7-1.5-7.5-5.9c-0.8-4.5,1.3-8.3,4-8.8c2-0.3,3.4,0.9,3.8,3C99.1,91.5,97.9,94.9,94.6,96.6z M93.9,94.7
					c1.6-1.1,2.4-3.2,2.1-5.3c-0.1-0.8-0.5-1.2-1-1.1c-1.7,0.3-1.6,4.3-1.3,5.7C93.7,94.3,93.8,94.5,93.9,94.7z"/>
				<path class="st3" d="M107.7,92.4c0.2,0.9-0.3,1.4-0.9,1.5c-0.7,0.1-1.7-0.4-1.9-1.3l-3-17.4c-0.1-0.7-0.5-0.9-0.5-1.2
					c0-0.2,0.2-0.5,1-0.6c1-0.2,2,0,2.2,1.1L107.7,92.4z M108.8,96.8c0.2,0.9-0.5,1.8-1.4,2c-0.9,0.2-1.8-0.5-2-1.4
					c-0.2-1,0.5-1.8,1.4-2C107.7,95.3,108.6,95.9,108.8,96.8z"/>
			</g>
			<g>
				<path class="st3" d="M104.9,35.2c1.4-1.8,2.7-5.4,0.1-6.9c-2.2-1.3-4.4,0-6.5,1.4c0.8-3.9,0.9-8.2-4.6-7.3
					c-7.1,1.1-7.1,9.5-5.6,14.8c0.5,1.6,2.8,1,2.5-0.6c-0.7-3.5-1.9-7.5,1.2-10.2c1.8-1.5,4.9-1.8,4.4,1.6c-0.3,1.5-0.9,3-1.3,4.5
					c-0.3,1.1,0.9,2.1,2,1.5c1.5-0.8,2.8-1.9,4.2-2.7c0.4-0.2,2.7-1.6,2.5,0.2c-0.1,0.8-0.7,1.6-1.2,2.3c-1.2,1.7-2.9,2.9-4.5,4
					c-0.9,0.6-6.2,3.4-7.1,1.2c-0.4-0.9-2-0.9-1.9,0.2c0.2,3,3.9,3.2,6.3,2.6C99,41,102.6,38.2,104.9,35.2z"/>
				<path class="st3" d="M76.8,21.4c-1.8,0.6-2.2,2.1-2.2,3.7c-0.9-0.7-2-1.2-3.4-1.4c-2.4-0.4-3.6,2-4,3.9
					c-1.1,5.6,5.5,11,10.6,11.4c0.6,0,1-0.2,1.2-0.5c1-0.1,1.8-1.3,2.4-2.5c1.2-2.8,1.7-6,1.2-9C82.1,24.2,80.2,20.3,76.8,21.4z
					 M80.5,29c0.2,1-0.2,2.2-0.4,3.3c-0.1,0.5-0.6,3.9-1.4,4.2c-0.2-0.2-0.4-0.3-0.7-0.4c-2.7-0.6-7.4-2.9-8.2-5.8
					c-0.3-1.1-0.5-3.3,0.7-4c1.8-1.1,4.1,2.3,4.8,3.5c0.7,1.2,2.6,0.7,2.3-0.7c-0.3-1.6-1-3.4-0.5-5c0.6-2.2,2.7,1.8,2.8,2.1
					C80.2,27.1,80.3,28.1,80.5,29z"/>
			</g>
			<g>
				<path class="st3" d="M106.4,285.8c-3.5,0-3.4,5.5,0.1,5.4C109.9,291.2,109.9,285.8,106.4,285.8z"/>
				<path class="st3" d="M130.5,282.4c-3.7,0-3.7,5.8,0.1,5.8C134.2,288.1,134.2,282.4,130.5,282.4z"/>
				<path class="st3" d="M143.3,297.3c-5.6,8.7-8.4,18.1-19,22.3c-12.3,4.9-21.7-7.5-27-16.7c-1-1.7-3.4-0.2-2.5,1.5
					c5.1,10.6,13.7,23.3,27.3,21.2c12-1.8,24.3-14.2,26.4-26.3C148.9,296.3,145.1,294.6,143.3,297.3z"/>
			</g>
		</g>
	</g>
</g>
<g>
	<g>
		<g>
			<path class="st4" d="M71.6,276.6c-25.2-18.5-26.2-52.4-17.4-79.8c1-3-4.5-3-5.2-0.6c-9.3,28.9-8.1,64.1,18.5,83.6
				C69.4,281.2,74.2,278.4,71.6,276.6L71.6,276.6z"/>
		</g>
	</g>
	<g>
		<g>
			<path class="st4" d="M72.5,200.9c-1.9-3.8-3.8-7.5-5.7-11.3c-1.4-2.7-2.6-6.8-5.5-8.3c-2-1.1-4.3-0.7-6.5-0.1
				c-4.3,1.1-8.5,2.5-12.8,3.7c-3.4,1-2.3,4.9,1,3.9c2.7-0.8,5.5-1.6,8.2-2.4c3.6-1,6.4-2.3,8.4,1.7c2.6,5.1,5.2,10.2,7.7,15.3
				C68.7,205.6,73.9,203.5,72.5,200.9L72.5,200.9z"/>
		</g>
	</g>
	<g>
		<g>
			<path class="st4" d="M70,202.1c-8.7-4.5-17.4-8.9-26.1-13.4c-1.5-0.7-6.5,1.4-4.4,2.5c8.7,4.5,17.4,8.9,26.1,13.4
				C67.1,205.4,72.1,203.2,70,202.1L70,202.1z"/>
		</g>
	</g>
	<g>
		<g>
			<path class="st4" d="M50.2,197.9c1.2,0.5,2.4,1,3.6,1.5c1,0.4,6.2-0.8,4.7-2.2c-3.1-3.2-6.7-5.9-10.7-8c-1.5,0.8-2.9,1.6-4.4,2.5
				c4.3,2.1,8.5,4.3,12.8,6.4c1,0.5,6.1-0.9,4.7-2.2c-2.5-2.3-5-4.7-7.4-7c-1.6,0.7-3.2,1.5-4.7,2.2c3.3,1.7,6.5,3.4,9.8,5.1
				c1.1,0.5,6.1-1,4.7-2.2c-2.2-2.1-4.5-4.2-6.7-6.3c-1.6,0.7-3.2,1.5-4.7,2.2c2.7,1,5.4,1.9,8,2.9c0.8,0.3,5.8-0.4,4.9-2
				c-1.5-2.8-3.5-4.7-6.3-6.1c-1.4-0.7-6.4,1.4-4.4,2.5c2.3,1.2,4,2.9,5.3,5.1c1.6-0.7,3.3-1.3,4.9-2c-2.7-1-5.4-1.9-8-2.9
				c-0.9-0.3-6.3,0.8-4.7,2.2c2.2,2.1,4.5,4.2,6.7,6.3c1.6-0.7,3.2-1.5,4.7-2.2c-3.3-1.7-6.5-3.4-9.8-5.1c-1-0.5-6.1,0.9-4.7,2.2
				c2.5,2.3,5,4.7,7.4,7c1.6-0.7,3.2-1.5,4.7-2.2c-4.3-2.1-8.5-4.3-12.8-6.4c-1.4-0.7-6.5,1.4-4.4,2.5c3.7,2,7,4.5,10,7.6
				c1.6-0.7,3.2-1.5,4.7-2.2c-1.2-0.5-2.4-1-3.6-1.5C53.2,194.9,48.2,197.1,50.2,197.9L50.2,197.9z"/>
		</g>
	</g>
</g>
</svg>
