<?xml version="1.0" encoding="utf-8"?>
<!-- Generator: Adobe Illustrator 22.0.1, SVG Export Plug-In . SVG Version: 6.00 Build 0)  -->
<svg version="1.1" id="Layer_1" xmlns="http://www.w3.org/2000/svg" xmlns:xlink="http://www.w3.org/1999/xlink" x="0px" y="0px"
	 viewBox="0 0 700 380" style="enable-background:new 0 0 700 380;" xml:space="preserve">
<style type="text/css">
	.st0{fill:none;}
	.st1{fill:#006A5A;}
</style>
<rect x="-37.5" y="96" class="st0" width="400" height="179.6"/>
<rect x="-32.3" y="96" class="st0" width="400" height="179.6"/>
<path class="st1" d="M699.6,302.6c-1-49.4-2.9-98.5-3.7-147.6c-0.4-24.8-2.2-49.3-3-73.9c-0.7-20.1,1.4-46.2-9.9-60.4
	c-5.5-7-12.4-8.9-19.4-10.6c-7.7-1.8-15.5-2.8-23.2-3.5c-16.1-1.4-32.3-1.9-48.5-2.5c-33.2-1.3-66.4-2.5-99.8-3.5
	c-32.7-0.9-65.5-0.6-98.4-0.4c-33.2,0.2-66.4-0.9-99.8,0.2c-33.4,1-67,3.3-100.6,4.8c-33.4,1.5-67,1.9-100.6,2.5
	C84.4,7.8,76.2,7.9,68,8.1c-8.2,0.2-16.3-1.1-24.6-0.5C28.9,8.5,12.2,6.2,3.2,27.9c-3.8,9.2-3.4,20.1-3,30.1
	c0.6,12.2,1,24.3,0.8,36.6c-0.4,24.6-1.2,49.1-0.6,73.7c0.3,11.7,0.9,23.4,1.4,35.1c1.3,34.1-0.2,68.9,2,102.9
	c1,15.7,2.1,33.5,6.7,47.5c13.4,40.6,80,21.5,104.3,21.7c43.8,0.4,87.5,0.7,131.3,1.1c51,0,102,0.8,152.9,1.2
	c25.5,0.2,51,0.4,76.5,0.6c7.2,0.1,145.6-5.8,145.5-6.6c18.1-0.7,37.9-1.3,55.5-9c7.8-3.4,16.1-9.3,20.2-20.7
	C701.2,330.7,699.9,315.2,699.6,302.6z"/>
</svg>
