<?xml version="1.0" encoding="utf-8"?>
<!-- Generator: Adobe Illustrator 22.1.0, SVG Export Plug-In . SVG Version: 6.00 Build 0)  -->
<svg version="1.1" id="Layer_1" xmlns="http://www.w3.org/2000/svg" xmlns:xlink="http://www.w3.org/1999/xlink" x="0px" y="0px"
	 viewBox="0 0 174 229" style="enable-background:new 0 0 174 229;" xml:space="preserve">
<style type="text/css">
	.st0{fill:#C4C5C7;}
	.st1{fill:#FFFFFF;}
	.st2{fill:#434040;}
	.st3{enable-background:new    ;}
	.st4{fill:#AAD829;}
</style>
<g>
	<g>
		<path class="st0" d="M159.2,180c1.5,11,3.8,21.8,5.2,32.8l0.5,4.2l-3-0.2c-23.1-1.9-46.1-5.2-69.2-6.4c-15.6-0.8-31.2-1.3-46.8-1
			c-4.9,0.1-9.8,0.4-14.8,0.6c0.1,1,0.2,1.9,0.3,2.9c0.2,2.9,0.5,5.8,1.1,8.7c0.1,0.7,0.5,1.8,0.7,3.1c9.3-2.8,19.9-2.8,29.3-3.6
			c12.9-1,25.9-2.3,38.8-3.2c23-1.7,46-1.3,68.8,2.1c-3.1-14.4-2.4-29.5-4.3-44.1c-2.1-15.8-4.8-31.5-6.2-47.3
			c-0.9-10.4-1.7-21.2-2.1-32.2c-0.5,8.3-0.9,16.7-1,25C156.1,140.9,156.5,160.6,159.2,180z"/>
		<path class="st1" d="M110,18.8c0.1-1.3,0.6-2.6,0.9-3.7c0.2-0.8,0.3-1.9,0.7-2.9c-1.1-0.1-2.2-0.3-3.2-0.5
			c-0.2,0.8-0.6,1.7-0.9,2.5c-0.6,1.6-1.2,2.9-2.5,4C106.7,18.4,108.4,18.6,110,18.8z"/>
		<path class="st1" d="M93.1,20.5c-8.1-0.9-16.1-2-24.2-2.9C69,17.7,69,17.9,69,18c0.4,2.4,0.3,4.8,0.3,7.2
			c12.4,1.4,24.9,3.2,37.3,4.4c0.4-2.4,0.6-4.8,0.8-7.3C102.7,21.6,97.9,21,93.1,20.5z"/>
		<path class="st1" d="M102,5.6c-2-1.4-4.3-2.2-6.7-2.5c-2.8-0.3-5.7-0.2-8.5,0.6c1.8,0.1,3.5,0.3,5.1,0.5C95.2,4.6,98.6,5,102,5.6z
			"/>
		<path class="st1" d="M6.3,109.6c-1,19.4-1.5,38.8-0.8,58.3c0.4,10.6,0.4,21.2,1.5,31.7c0.3,2.8,0.8,5.6,1.2,8.5
			c27.4-4.8,57.7-2.7,84.8-1.2c22.4,1.2,45.4,2.4,67.9,5.4c-6.2-30.2-10-59.9-9.2-91.3c0.7-29.7,1.3-61.8,6.9-91.6
			c-5.3-0.9-10.6-1.9-15.9-2.6c-10.7-1.4-21.5-2.8-32.2-4.2c0.1,3-0.2,6-0.7,9c-0.2,1-0.9,1.7-1.9,1.6C94.2,32.5,80.6,31,67,29.1
			c-1.2-0.2-1.9-1.1-1.9-2.3c0-3.1,0.2-6.3,1.5-9.2c0.1-0.2,0.2-0.3,0.3-0.4c-17.2-2.1-34.4-4-51.7-4.9c-0.4,13.1-2.6,26.4-3.9,39.2
			C9.3,70.9,7.3,90.2,6.3,109.6z M29.3,91.1c-0.7-0.4-1.1-0.9-1.6-1.4c-0.2-0.2-0.2-0.5,0-0.6c1.6-1.2,3.3-1.5,5.3-1
			c2.5,0.5,2.3,4.1-0.4,4C31.4,91.9,30.3,91.7,29.3,91.1z M28.4,108.2c-0.6-0.3-1.2-0.8-1.3-1.5c-0.1-1.7,2.1-2.4,3.5-2.2
			c1.6,0.3,2.7,2.5,1.1,3.6C30.6,108.8,29.6,108.9,28.4,108.2z M27,124.4c-1.1-0.2-1.8-0.6-2.2-1.6c-0.4-0.9,0.2-1.8,1.1-2
			c0.5-0.1,0.9-0.2,1.5-0.2C29.9,120.7,29.4,124.8,27,124.4z M26.9,144.9l-0.1,0.1c-0.3,0.3-0.7,0.4-1.1,0.5
			c-0.2,0.1-0.4,0.2-0.5,0.2c-1.7,0.7-2.7-1-2.2-2.2c0-0.5,0.2-1.1,0.7-1.6c0.6-0.6,1.4-0.8,2.2-0.7c0.3,0,0.6,0,1,0.1
			c0.8,0.4,1.3,1.1,1.2,1.9C28,144,27.5,144.5,26.9,144.9z"/>
		<path class="st1" d="M93.5,16.9c3.7,0.4,7.4,0.8,11.1,1.3c0,0-0.1,0-0.1-0.1c-0.2-1.7,0.1-3.1,0.7-4.7c0.3-0.7,0.5-1.4,0.8-2
			c-4.8-1-9.6-2.2-14.6-2.5C87,8.4,81.8,9.1,77.1,8.5c-0.2,0.8-0.6,1.6-0.8,2.2c-0.4,1.3-0.8,2.9-1.8,4
			C80.8,15.4,87.1,16.1,93.5,16.9z"/>
		<path class="st1" d="M74.2,10c0.2-0.5,0.4-1.2,0.7-1.8c-0.5-0.1-1-0.2-1.4-0.4c-0.9,2.1-2.5,4.1-3.7,6c-0.1,0.1-0.2,0.2-0.2,0.4
			c1.2,0.1,2.3,0.3,3.5,0.4C72.7,13,73.7,11.3,74.2,10z"/>
		<g>
			<path class="st2" d="M174,219.5c-3-29.2-6-58.3-9.2-87.4c-3.2-28.7-0.6-57.7-2.9-86.4c0.5-5.2,1-10.3,1.4-15.5l0.2-4.5l-4-0.7
				c-15.1-2.5-30.3-4.2-45.5-5.8c0.4-1.1,0.5-2.4,0.7-3.2c0.2-1.2,0.7-2.7,0.4-3.9c0.6-0.6,0.8-1.7-0.1-2.2c-2.5-1.4-5.2-2.4-8-3.1
				c-1.1-3-7.5-5.7-9.3-6.1c-4.3-1-12.9-1.1-16.2,3.1c-1.9,0.1-3.7,0.3-5.4,0.8c-0.7-0.3-1.4-0.4-2.2-0.2c-1.1,0.2-2.2-0.2-3,0.6
				c-0.4,0.4-0.6,0.9-0.4,1.4c-1.2,1.5-2,3.3-2.9,5c-0.4,0.8-1.2,1.7-1.5,2.6c-8-0.9-16-1.8-24-2.7c-8.9-1-17.9-1.9-26.8-1.7L11,9.5
				l-0.5,2.6C7.8,26.4,7.1,41.5,5.7,55.6c-2.2,20.8-4.1,41.6-5.1,62.5c-1,20.6-0.6,41.2,0.2,61.8c0.3,9.2,0.3,19.6,2.5,29.1l0.6,2.2
				l4.9-0.1c6-0.1,12.1-0.5,18.1-0.9c-0.2,2,0.1,4.2,0.3,5.9c0.3,3.4,0.7,7,1.9,10.3c-0.3,0.5,0,1.3,0.6,1.5
				c0.3,0.5,0.9,0.9,1.5,0.9c0.9,0.1,1.5-0.2,1.8-0.7c8.6,0.2,17.5-1.7,26-2.5c12.9-1.2,25.9-2.2,38.8-3.4c14.2-1.3,28.5-1.9,42.8-2
				c10-0.1,20.1,1.2,30.1,0.6C171.6,222.3,174.2,221.6,174,219.5z M108.4,11.7c1.1,0.2,2.2,0.4,3.2,0.5c-0.4,0.9-0.5,2.1-0.7,2.9
				c-0.3,1-0.8,2.4-0.9,3.7c-1.7-0.2-3.3-0.4-5-0.6c1.3-1.1,2-2.4,2.5-4C107.8,13.4,108.2,12.6,108.4,11.7z M106.7,29.6
				c-12.5-1.2-24.9-2.9-37.3-4.4c0-2.4,0-4.9-0.3-7.2c0-0.2-0.1-0.3-0.1-0.4c8.1,1,16.2,2,24.2,2.9c4.8,0.6,9.6,1.2,14.3,1.8
				C107.3,24.7,107.1,27.1,106.7,29.6z M95.3,3.1c2.4,0.2,4.8,1.1,6.7,2.5c-3.4-0.6-6.8-1-10.1-1.3c-1.6-0.2-3.3-0.4-5.1-0.5
				C89.6,2.9,92.5,2.9,95.3,3.1z M76.3,10.7c0.2-0.6,0.6-1.4,0.8-2.2C81.8,9,87,8.4,91.5,8.7c4.9,0.4,9.8,1.6,14.6,2.5
				c-0.3,0.7-0.5,1.4-0.8,2c-0.6,1.6-1,3-0.7,4.7c0,0,0,0.1,0.1,0.1c-3.7-0.4-7.5-0.8-11.2-1.3c-6.3-0.8-12.6-1.5-19-2.2
				C75.5,13.7,75.9,12,76.3,10.7z M69.8,13.8c1.2-1.9,2.8-3.9,3.7-6c0.5,0.1,1,0.2,1.4,0.4c-0.3,0.6-0.5,1.3-0.7,1.8
				c-0.5,1.4-1.5,3-1.2,4.6c-1.2-0.1-2.3-0.3-3.5-0.4C69.6,14,69.7,13.9,69.8,13.8z M8.2,208c-0.5-2.8-0.9-5.6-1.2-8.5
				c-1.1-10.5-1.2-21.1-1.5-31.7c-0.6-19.4-0.2-38.9,0.8-58.3s3.1-38.7,5.1-58.1c1.3-12.8,3.5-26.1,3.9-39.2
				C32.6,13.1,49.8,15,67,17.1c-0.1,0.1-0.2,0.2-0.3,0.4c-1.3,2.9-1.5,6-1.5,9.2c0,1.2,0.7,2.1,1.9,2.3c13.6,1.8,27.2,3.4,40.9,4.1
				c1,0,1.8-0.6,1.9-1.6c0.5-3,0.8-6,0.7-9c10.7,1.3,21.5,2.7,32.2,4.2c5.3,0.7,10.6,1.6,15.9,2.6c-5.6,29.8-6.2,61.9-6.9,91.6
				c-0.7,31.4,3,61.1,9.2,91.3c-22.5-3-45.6-4.2-67.9-5.4C65.9,205.4,35.6,203.2,8.2,208z M101.4,217.9c-12.9,1-25.9,2.2-38.8,3.2
				c-9.4,0.8-20.1,0.8-29.3,3.6c-0.2-1.2-0.6-2.4-0.7-3.1c-0.6-2.9-0.9-5.8-1.1-8.7c-0.1-1-0.1-2-0.3-2.9c4.9-0.3,9.9-0.6,14.8-0.6
				c15.6-0.3,31.2,0.2,46.8,1c23.1,1.1,46.1,4.4,69.2,6.4l3,0.2l-0.5-4.2c-1.4-10.9-3.7-21.8-5.2-32.8c-2.7-19.4-3.1-39-2.7-58.6
				c0.1-8.3,0.5-16.7,1-25c0.4,10.9,1.2,21.8,2.1,32.2c1.4,15.9,4.2,31.6,6.2,47.3c1.9,14.6,1.2,29.8,4.3,44.1
				C147.4,216.6,124.4,216.2,101.4,217.9z"/>
			<path class="st2" d="M27.8,89.8c-2-0.4-3.7-0.2-5.3,1c-0.2,0.2-0.2,0.5,0,0.6c0.6,0.5,1,1,1.6,1.4c1,0.6,2.2,0.8,3.3,0.9
				C30.1,93.9,30.3,90.4,27.8,89.8z"/>
			<path class="st2" d="M25.5,106.3c-1.4-0.2-3.6,0.5-3.5,2.2c0.1,0.7,0.7,1.2,1.3,1.5c1.2,0.7,2.2,0.5,3.3-0.2
				C28.2,108.8,27.1,106.6,25.5,106.3z"/>
			<path class="st2" d="M23.6,123.8c-0.6,0-0.9,0.1-1.5,0.2c-0.9,0.3-1.4,1.1-1.1,2c0.4,1,1.1,1.4,2.2,1.6
				C25.7,128,26.1,123.9,23.6,123.8z"/>
			<path class="st2" d="M24.8,144.9c0.1-0.9-0.4-1.6-1.2-1.9c-0.3-0.1-0.6-0.1-1-0.1c-0.8-0.1-1.6,0.1-2.2,0.7
				c-0.5,0.5-0.7,1.1-0.7,1.6c-0.5,1.3,0.5,2.9,2.2,2.2c0.2-0.1,0.4-0.1,0.5-0.2c0.4-0.1,0.8-0.2,1.1-0.5l0.1-0.1
				C24.3,146.1,24.7,145.6,24.8,144.9z"/>
			<path class="st2" d="M24.3,162.3c-2.1-0.1-3.7,0.4-5.1,1.8c-0.2,0.2-0.1,0.5,0.1,0.6c0.6,0.4,1.1,0.9,1.8,1.2
				c1.1,0.5,2.3,0.5,3.4,0.4C27.2,166,26.8,162.5,24.3,162.3z"/>
			<path class="st2" d="M24.5,179c-1.4,0-3.5,1-3.1,2.7c0.2,0.7,0.8,1.1,1.5,1.3c1.2,0.5,2.3,0.2,3.2-0.7
				C27.6,181,26.1,179,24.5,179z"/>
		</g>
	</g>
	<g>
		<g class="st3">
			<path class="st2" d="M49.9,33.3c1.3,0.4,2,0.9,1.9,1.6c-0.1,0.5-0.4,0.7-1.1,0.7c-0.4-0.2-0.7-0.3-0.8-0.3l-0.3,0
				c-1.2,0.1-2.2,1-3.1,2.8c-0.9,1.8-1.5,3.5-1.7,5.2s-0.1,2.8,0.3,3.5c0.4,0.6,1.1,1,2.1,1.1c0.9,0.1,1.7-0.2,2.2-0.9
				c0.6-0.7,1-1,1.3-1s0.5,0.2,0.7,0.4s0.2,0.6-0.1,1.1c-0.2,0.5-0.8,1.2-1.8,1.9c-1,0.7-2.1,0.9-3.3,0.6c-1.3-0.3-2.2-1-2.8-2
				c-0.6-1-0.8-2.8-0.4-5.4c0.4-2.6,1.2-4.8,2.4-6.6C46.6,34.1,48.1,33.2,49.9,33.3z"/>
			<path class="st2" d="M57.2,40.9c0.4,0.1,0.8,0.9,1.2,2.2s0.4,2.8,0.1,4.2c-0.3,1.5-0.9,2.5-1.9,3c-1,0.5-1.8,0.7-2.5,0.7
				c-1.3-0.2-2.1-0.9-2.4-2.2l0-0.6c0.5-2.1,1-3.8,1.8-4.8c0.7-1.1,1.4-1.8,2.1-2.1C56.2,40.9,56.8,40.8,57.2,40.9z M53.8,48
				c-0.1,0.4,0.1,0.8,0.4,1c0,0,0.1,0,0.3,0.1c0.4,0,0.8-0.1,1.4-0.5c0.6-0.4,0.9-1.1,1.1-2.4c0.2-1.2,0.1-2.2-0.3-2.9
				c-0.1-0.1-0.2-0.1-0.2-0.1c-0.5-0.1-1.2,0.8-2.1,2.6C54.1,46.4,53.9,47.1,53.8,48z"/>
			<path class="st2" d="M61.5,40.9l0.3,0c0.6,0.4,0.7,1.2,0.5,2.4c-0.3,1.2-0.7,3-1.3,5.4c0.7-0.8,1.4-1.8,2.2-2.8
				c0.8-1.1,1.6-2.1,2.3-3.2c0.4-0.4,0.8-0.6,1.2-0.5c0.4,0.1,0.5,1.7,0.1,5.1c0.3-0.4,0.8-1.1,1.4-2c0.7-0.9,1.1-1.5,1.2-2
				s0.6-0.7,1.2-0.7c0.7,0,0.9,0.8,0.7,2.3c-0.2,1.6-0.2,3.1-0.1,4.4c0.2,0.6,0.3,1,0.4,1l0.8,0.7c-0.1,0.7-0.5,1.1-1.2,1.2
				c-0.6-0.1-1.2-0.6-1.7-1.4c-0.4-1-0.6-2.2-0.6-3.6l-0.3,0.4c-1.2,1.5-2.1,2.6-2.7,3.1L65.7,51l-0.3,0c-0.8-0.1-1-1.4-0.6-4
				l-1.2,1.3c-1.1,1.6-2,2.7-2.6,3.3c-0.5,0.2-0.9,0.3-1.1,0.3l-0.3,0c-0.6-0.5-0.8-1.2-0.7-2.2l0.1-0.4c0.1-1.1,0.5-2.9,1-5.3
				C60.3,41.8,60.8,40.8,61.5,40.9z"/>
			<path class="st2" d="M77.5,43.1c1.8-0.2,2.8,0.3,3,1.4c0.2,1.1-0.1,2.4-0.7,3.9c-0.7,1.5-1.6,2.7-2.8,3.5s-2.1,1.2-2.7,1l-1,4
				l-0.2,0.5l0,0c-0.1,0.3-0.2,0.5-0.6,0.7c-0.3,0.1-0.5,0.2-0.7,0.2c-0.2,0-0.4-0.1-0.6-0.3c-0.2-0.2-0.3-0.6-0.2-1.1l0,0
				c0.2-1.2,0.9-4.1,2.1-8.8c0.4-1.4,0.8-2.6,1.1-3.6C74.6,43.7,75.7,43.3,77.5,43.1z M74.7,51c1.1-0.5,1.8-1,2.2-1.3
				c0.4-0.4,0.7-0.9,1-1.5c0.3-0.6,0.5-1.3,0.7-2.1c0.1-0.8-0.2-1.1-1.1-1c-0.9,0.1-1.4,0.4-1.5,1L74.7,51z"/>
			<path class="st2" d="M82.2,46.1c-0.8,0.4-1.2,0.4-1.3,0c-0.1-0.4,0-0.9,0.4-1.3c0.4-0.5,1.1-0.8,2.1-1c0.9-0.3,2-0.3,3.1-0.2
				c1.6,0.2,2.5,0.8,2.7,1.7l0,0.4c-0.1,0.9-0.5,1.7-1.3,2.2c-0.8,0.6-1.4,1-2,1.2c-0.6,0.3-1,0.5-1.4,0.6c0.2,0.1,0.4,0.2,0.6,0.4
				c0.4,0.2,0.9,0.9,1.5,1.9c0.6,1,0.9,1.7,0.9,2.1c0,0.4-0.2,0.6-0.7,0.6c-0.5,0-1.1-0.5-1.6-1.6c-0.6-1.1-1.3-1.8-2.3-2.2
				c-0.4,2.3-0.9,3.4-1.5,3.3c-0.6-0.1-0.8-0.4-0.7-1.1l0.5-2.9c-0.2-0.5-0.2-0.8-0.1-1.1c0.1-0.3,0.4-0.6,0.8-1L82.2,46.1z
				 M83.7,48.2c0.9-0.4,1.9-0.9,2.9-1.6c0.4-0.3,0.6-0.6,0.6-0.7s-0.2-0.2-0.5-0.3c-0.3-0.1-0.7-0.1-1.1-0.2c-0.4,0-0.9,0-1.3,0.1
				L83.7,48.2z"/>
			<path class="st2" d="M97,54.3c0.3-0.1,0.6-0.2,0.7-0.3s0.4,0,0.7,0.1c0.3,0.1,0.4,0.4,0.4,0.6c0,0.3-0.2,0.5-0.6,0.8
				c-0.4,0.3-1,0.4-1.9,0.4c-0.9,0-1.6-0.6-2.1-1.6c-0.1-0.3-0.3-0.6-0.4-0.8c-0.7,0.6-1.4,1.1-2.3,1.5c-0.6,0.2-1.2,0.2-1.6,0.1
				c-1-0.3-1.4-1.1-1.4-2.7l0.1-0.3c0.4-1.7,1.1-3.1,2.1-4.4c0.4-0.7,1.1-1.4,2.1-2.2c0.9-0.6,1.8-0.8,2.8-0.6
				c0.8,0.2,1.2,0.8,1.2,1.7c-0.1,0.9-0.2,1.8-0.5,2.8c-0.4,1.7-0.6,2.9-0.5,3.4c0.1,0.5,0.2,0.9,0.4,1.2
				C96.4,54.3,96.7,54.4,97,54.3z M94.5,47c-0.3,0.1-0.8,0.4-1.3,0.8c-0.6,0.4-1.2,1.3-1.8,2.6c-0.7,1.3-0.9,2.2-0.7,2.8l0.3,0.1
				c0.1,0,0.3,0,0.5-0.1c0.2-0.1,0.6-0.4,1.2-0.9c0.6-0.5,1-1.1,1.2-2S94.3,48.3,94.5,47z"/>
			<path class="st2" d="M103,45.5c1.1,0.3,1.5,0.8,1.5,1.5c-0.2,0.5-0.5,0.7-1,0.6l-0.7-0.2l-0.3,0c-0.4,0-0.9,0.2-1.7,0.8
				c-0.3,0.5-0.5,0.8-0.5,1l0,0.1c0,0.1,0.3,0.5,0.9,1c0.7,0.5,1,0.8,1,0.8c1.8-1.5,2.9-2.2,3.5-2.1c0.6,0.1,0.7,0.4,0.5,1
				c-0.2,0.6-0.7,1-1.3,1.4c-0.6,0.4-1.1,0.7-1.3,1c0.4,0.9,0.4,1.7,0.1,2.5s-0.8,1.4-1.4,1.8c-0.6,0.4-1.3,0.6-2.1,0.7l-0.4,0
				c-1.1-0.2-1.5-0.8-1.4-1.7c0.2-1,1-2,2.4-3l-0.5-0.4c-0.9-0.5-1.5-1.2-1.9-2.2l-0.1-0.8c0.1-0.9,0.8-1.8,1.9-2.7
				C101,45.7,101.9,45.4,103,45.5z M101.6,55.1c0.4-0.3,0.6-0.6,0.7-0.9s0-0.4-0.1-0.4c-0.1,0-0.3,0.1-0.8,0.4
				c-0.5,0.3-0.8,0.7-0.9,1.2C100.8,55.5,101.2,55.4,101.6,55.1z"/>
			<path class="st2" d="M119.2,42.8l0.1,0c0.8,0.1,1,0.9,0.9,2.4l-0.8,6.1l-0.3,2.1c-0.2,1.6-0.3,2.5-0.2,2.5c0,0,0.2,0.2,0.6,0.6
				l-0.1,0.5c-0.4,0.6-0.8,0.9-1.3,0.8c-0.8-0.1-1.2-0.7-1.3-1.9c-2,1.4-3.6,2-4.7,1.9l-0.3,0c-1-0.1-1.5-0.9-1.7-2.3
				c0.1-0.7,0.6-1.8,1.5-3.2c0.5-0.8,1.3-1.7,2.3-2.8c1.5-1.3,2.7-1.8,3.6-1.7L118,46l0.1-2.3C118.2,43.1,118.5,42.8,119.2,42.8z
				 M112.5,55.1c-0.2,0.6,0,0.9,0.7,0.9c0.7,0,1.5-0.4,2.5-1.2s1.5-2.4,1.6-4.8c-0.5-0.1-0.9,0.1-1.4,0.7c-1.2,1-2,1.8-2.4,2.5
				C113.1,53.9,112.7,54.5,112.5,55.1z"/>
			<path class="st2" d="M125.2,48.1c1-0.1,1.5,0.6,1.4,2c0,1.4-1.3,3.2-3.6,5.3l-0.3,0.3l0,0.1c-0.1,0.7,0.1,1.1,0.8,1.3
				s1.3,0.2,1.7,0.1c0.5-0.1,0.9-0.3,1.2-0.6c0.3-0.3,0.6-0.3,0.8-0.1c0.2,0.3,0.3,0.5,0.3,0.7c0,0.3-0.4,0.7-1,1
				c-0.6,0.4-1.5,0.6-2.7,0.6c-1.2,0-2-0.4-2.4-1.2c-0.5-0.8-0.7-1.2-0.7-1.3c-0.3,0.2-0.5,0.2-0.7-0.1c-0.2-0.3-0.2-0.6,0.1-0.9
				c0.2-0.3,0.4-0.5,0.5-0.7c0.1-0.1,0.2-0.3,0.2-0.4c0.2-2,0.7-3.6,1.6-4.7C123.3,48.8,124.3,48.2,125.2,48.1z M124.1,52
				c0.4-0.6,0.6-1.1,0.7-1.4c0.1-0.4-0.1-0.4-0.6-0.1c-0.5,0.4-1.1,1.5-1.7,3.5C123.1,53.3,123.7,52.6,124.1,52z"/>
		</g>
		<g class="st3">
			<path class="st2" d="M49.2,54.2l0.3,0c0.5,0.4,0.8,0.8,0.7,1.3c-1,4.7-1.7,8.3-2,10.9l-0.2,2.1c-0.1,0.5-0.4,0.9-1.1,1
				c-0.8-0.1-1.1-1-0.9-2.7l0-0.2c0.4-2.9,1.1-6.8,2.1-11.6C48.4,54.4,48.8,54.1,49.2,54.2z"/>
			<path class="st2" d="M58.3,69.1c0.3-0.1,0.6-0.2,0.7-0.3c0.2-0.1,0.4,0,0.7,0.1c0.3,0.2,0.4,0.4,0.4,0.6c0,0.3-0.2,0.5-0.6,0.8
				c-0.4,0.3-1,0.4-1.9,0.4c-0.9,0-1.6-0.6-2.1-1.6c-0.1-0.3-0.3-0.6-0.4-0.8c-0.7,0.6-1.4,1.1-2.3,1.5c-0.6,0.2-1.2,0.2-1.6,0.1
				c-1-0.3-1.4-1.1-1.4-2.7l0.1-0.3c0.4-1.7,1.1-3.1,2.1-4.4c0.4-0.7,1.1-1.4,2.1-2.2c0.9-0.6,1.8-0.8,2.8-0.6
				c0.8,0.2,1.2,0.8,1.2,1.7c-0.1,0.9-0.2,1.8-0.5,2.8c-0.4,1.7-0.6,2.9-0.5,3.4s0.2,0.9,0.4,1.2C57.8,69.2,58,69.2,58.3,69.1z
				 M55.9,61.8c-0.3,0.1-0.8,0.4-1.3,0.8c-0.6,0.4-1.2,1.3-1.8,2.6c-0.7,1.3-0.9,2.2-0.7,2.8l0.3,0.1c0.1,0,0.3,0,0.5-0.1
				s0.6-0.4,1.2-0.9c0.6-0.5,1-1.1,1.2-2C55.5,64.2,55.7,63.1,55.9,61.8z"/>
			<path class="st2" d="M70.2,61c1.1,0.3,1.5,0.8,1.5,1.5c-0.2,0.5-0.5,0.7-1,0.6L69.9,63l-0.3,0c-0.4,0-0.9,0.2-1.7,0.8
				c-0.3,0.5-0.5,0.8-0.5,1l0,0.1c0,0.1,0.3,0.5,0.9,1c0.7,0.5,1,0.8,1,0.8c1.8-1.5,2.9-2.2,3.5-2.1c0.6,0.1,0.7,0.4,0.5,1
				c-0.2,0.6-0.7,1-1.3,1.4c-0.6,0.4-1.1,0.7-1.3,1c0.4,0.9,0.4,1.7,0.1,2.5c-0.4,0.8-0.8,1.4-1.4,1.8c-0.6,0.4-1.3,0.6-2.1,0.7
				l-0.4,0c-1.1-0.2-1.5-0.8-1.4-1.7c0.2-1,1-2,2.4-3l-0.5-0.4c-0.9-0.5-1.5-1.2-1.9-2.2l-0.1-0.8c0.1-0.9,0.8-1.8,1.9-2.7
				C68.2,61.2,69.2,60.9,70.2,61z M68.9,70.6c0.4-0.3,0.6-0.6,0.7-0.9c0-0.3,0-0.4-0.1-0.4c-0.1,0-0.3,0.1-0.8,0.4
				c-0.5,0.3-0.8,0.7-0.9,1.2C68.1,71,68.5,70.9,68.9,70.6z"/>
			<path class="st2" d="M76.8,61.8c1-0.1,1.5,0.6,1.4,2c0,1.4-1.3,3.2-3.6,5.3l-0.3,0.3l0,0.1c-0.1,0.7,0.1,1.1,0.8,1.3
				s1.3,0.2,1.7,0.1c0.5-0.1,0.9-0.3,1.2-0.6c0.3-0.3,0.6-0.3,0.8-0.1c0.2,0.3,0.3,0.5,0.3,0.7c0,0.3-0.4,0.7-1,1
				c-0.6,0.4-1.5,0.6-2.7,0.6c-1.2,0-2-0.4-2.4-1.2c-0.5-0.8-0.7-1.2-0.7-1.3c-0.3,0.2-0.5,0.2-0.7-0.1c-0.2-0.3-0.2-0.6,0.1-0.9
				c0.2-0.3,0.4-0.5,0.5-0.7c0.1-0.1,0.2-0.3,0.2-0.4c0.2-2,0.7-3.6,1.6-4.7C74.8,62.4,75.8,61.9,76.8,61.8z M75.6,65.7
				c0.4-0.6,0.6-1.1,0.7-1.4c0.1-0.4-0.1-0.4-0.6-0.1c-0.5,0.4-1.1,1.5-1.7,3.5C74.7,66.9,75.2,66.3,75.6,65.7z"/>
			<path class="st2" d="M80.5,62.4l0.3,0c0.6,0.4,0.7,1.2,0.5,2.4c-0.3,1.2-0.7,3-1.3,5.4c0.7-0.8,1.4-1.8,2.2-2.8
				c0.8-1.1,1.6-2.1,2.3-3.2c0.4-0.4,0.8-0.6,1.2-0.5c0.4,0.1,0.5,1.7,0.1,5.1c0.3-0.4,0.8-1.1,1.4-2c0.7-0.9,1.1-1.5,1.2-2
				c0.2-0.5,0.6-0.7,1.3-0.7c0.7,0,0.9,0.8,0.7,2.3c-0.2,1.6-0.2,3.1-0.1,4.4c0.2,0.6,0.3,1,0.4,1l0.8,0.7c-0.1,0.7-0.5,1.1-1.2,1.2
				c-0.6-0.1-1.2-0.6-1.7-1.4c-0.4-1-0.6-2.2-0.6-3.6l-0.3,0.4c-1.2,1.5-2.1,2.6-2.7,3.1l-0.4,0.2l-0.3,0c-0.8-0.1-1-1.4-0.6-4
				l-1.2,1.3c-1.1,1.6-2,2.7-2.6,3.3c-0.5,0.2-0.9,0.3-1.1,0.3l-0.3,0c-0.6-0.5-0.8-1.2-0.7-2.2l0.1-0.4c0.1-1.1,0.5-2.9,1-5.3
				C79.3,63.4,79.8,62.4,80.5,62.4z"/>
			<path class="st2" d="M99.8,74c0.3-0.1,0.6-0.2,0.7-0.3c0.2-0.1,0.4,0,0.7,0.1s0.4,0.4,0.4,0.6c0,0.3-0.2,0.5-0.6,0.8
				c-0.4,0.3-1,0.4-1.9,0.4c-0.9,0-1.6-0.6-2.1-1.6c-0.1-0.3-0.3-0.6-0.4-0.8c-0.7,0.6-1.4,1.1-2.3,1.5c-0.6,0.2-1.2,0.2-1.6,0.1
				c-1-0.3-1.4-1.1-1.4-2.7l0.1-0.3c0.4-1.7,1.1-3.1,2.1-4.4c0.4-0.7,1.1-1.4,2.1-2.2c0.9-0.6,1.8-0.8,2.8-0.6
				c0.8,0.2,1.2,0.8,1.2,1.7c-0.1,0.9-0.2,1.8-0.5,2.8c-0.4,1.7-0.6,2.9-0.5,3.4s0.2,0.9,0.4,1.2C99.2,74,99.5,74.1,99.8,74z
				 M97.3,66.7C97,66.8,96.6,67,96,67.4c-0.6,0.4-1.2,1.3-1.8,2.6s-0.9,2.2-0.7,2.8l0.3,0.1c0.1,0,0.3,0,0.5-0.1
				c0.2-0.1,0.6-0.4,1.2-0.9c0.6-0.5,1-1.1,1.2-2C97,69.1,97.2,68,97.3,66.7z"/>
			<path class="st2" d="M104.6,65c0.7,0.1,1,0.5,0.9,1.4l-1,2c-0.5,1.1-0.9,2-1.2,2.9l1.5-2.4c0.7-0.9,1.2-1.6,1.6-2.3
				c0.4-0.6,0.9-0.8,1.5-0.4c0.6,0.4,0.7,1.9,0.3,4.7c-0.1,0.7-0.1,1.4,0.1,2.3c0.1,0.3,0.3,0.4,0.6,0.5c0.4,0,0.8,0,1.2-0.2
				s0.7,0.1,0.8,0.7c0.2,0.6-0.2,1.1-1.1,1.4c-0.6,0.2-1.2,0.2-1.6,0.2c-1.2-0.1-1.9-0.7-2.1-1.8c-0.2-1-0.1-2.1,0.1-3.3
				c0.3-1.2,0.1-1.2-0.7,0l-2.9,4.2c-0.3,0.4-0.7,0.7-1.2,1.1l-0.3,0c-0.5-0.1-0.7-0.5-0.8-1.5c1-3.7,1.8-6.3,2.6-7.7
				C103.5,65.5,104,65,104.6,65z"/>
			<path class="st2" d="M118.6,76.2c0.3-0.1,0.6-0.2,0.7-0.3c0.2-0.1,0.4,0,0.7,0.1c0.3,0.1,0.4,0.4,0.4,0.6s-0.2,0.5-0.6,0.8
				c-0.4,0.3-1,0.4-1.9,0.4c-0.9,0-1.6-0.6-2.1-1.6c-0.1-0.3-0.3-0.6-0.4-0.8c-0.7,0.6-1.4,1.1-2.3,1.5c-0.6,0.2-1.2,0.2-1.6,0.1
				c-1-0.3-1.4-1.1-1.4-2.7l0.1-0.3c0.4-1.7,1.1-3.1,2.1-4.4c0.4-0.7,1.1-1.4,2.1-2.2c0.9-0.6,1.8-0.8,2.8-0.6
				c0.8,0.2,1.2,0.8,1.2,1.7c-0.1,0.9-0.2,1.8-0.5,2.8c-0.4,1.7-0.6,2.9-0.5,3.4c0.1,0.5,0.2,0.9,0.4,1.2
				C118,76.2,118.3,76.3,118.6,76.2z M116.2,68.9c-0.3,0.1-0.8,0.4-1.3,0.8c-0.6,0.4-1.2,1.3-1.8,2.6s-0.9,2.2-0.7,2.8l0.3,0.1
				c0.1,0,0.3,0,0.5-0.1c0.2-0.1,0.6-0.4,1.2-0.9c0.6-0.5,1-1.1,1.2-2C115.8,71.3,116,70.2,116.2,68.9z"/>
		</g>
	</g>
	<g>
		<g class="st3">
			<path class="st2" d="M39.1,86c0.5-0.7,1-0.9,1.5-0.8c0.4,0.1,0.7,0.5,0.6,1.1c0,0.5-0.2,0.8-0.7,0.8c-0.4,0.3-0.7,1.1-1,2.1
				l0.6-0.2c0.5-0.1,0.9-0.2,1.2-0.2c0.5,0.1,0.7,0.4,0.5,0.9c-0.2,0.5-1.2,1-2.8,1.4c0,0,0,0.1-0.1,0.2c-0.2,1.1-0.4,2.2-0.4,3.3
				c-0.1,1.1,0,1.8,0.3,2.1c0.2,0.3,0.5,0.4,0.9,0.3c0.3-0.1,0.6-0.3,0.9-0.5c0.2-0.2,0.5-0.3,0.9-0.3c0.3,0,0.5,0.3,0.5,0.8
				c-0.1,0.4-0.3,0.8-0.7,1.2c-0.8,0.5-1.5,0.8-2.4,0.7c-0.8-0.1-1.4-0.5-1.7-1.2c-0.3-0.7-0.5-1.5-0.5-2.5c0-1,0.1-2.3,0.5-4
				c-1.6,0.1-2.4-0.2-2.4-0.9s0.9-0.9,2.7-0.8l0.5-1.4C38.2,87.4,38.6,86.7,39.1,86z"/>
			<path class="st2" d="M46.3,89.4c0.4,0.1,0.8,0.7,1.3,2c0.4,1.2,0.6,2.6,0.4,3.9c-0.2,1.4-0.7,2.3-1.5,2.9
				C45.5,98.7,44.7,99,44,99c-1.2-0.1-2-0.7-2.4-1.9l-0.1-0.5c0.3-2,0.7-3.5,1.3-4.6c0.6-1.1,1.2-1.8,1.8-2.1
				C45.3,89.5,45.9,89.3,46.3,89.4z M43.6,96.2c0,0.4,0.1,0.7,0.4,0.9c0,0,0.1,0,0.3,0c0.3,0,0.7-0.2,1.2-0.5
				c0.5-0.4,0.8-1.1,0.8-2.3c0.1-1.1-0.1-2-0.5-2.6c-0.1-0.1-0.1-0.1-0.2-0.1c-0.5,0-1.1,0.8-1.7,2.5C43.7,94.7,43.6,95.4,43.6,96.2
				z"/>
			<path class="st2" d="M50.2,89.1l0.3,0c0.5,0.3,0.7,1,0.6,2.2c-0.2,1.2-0.4,2.9-0.8,5.1c0.5-0.8,1.2-1.7,1.9-2.8
				c0.7-1,1.3-2.1,1.9-3.1c0.3-0.4,0.7-0.6,1.1-0.6c0.4,0,0.6,1.6,0.4,4.7c0.3-0.4,0.7-1.1,1.2-1.9c0.5-0.9,0.9-1.5,1-2
				c0.1-0.5,0.5-0.7,1.1-0.7c0.6,0,0.9,0.7,0.8,2.1c-0.1,1.5,0,2.8,0.2,4.1c0.2,0.6,0.3,0.9,0.4,0.9l0.8,0.6c0,0.6-0.4,1-1,1.2
				c-0.6,0-1.1-0.4-1.6-1.2c-0.5-0.9-0.7-2-0.8-3.2l-0.3,0.4c-1,1.5-1.8,2.5-2.3,3.1l-0.4,0.2l-0.3,0c-0.7,0-1-1.3-0.8-3.7l-1,1.3
				c-1,1.6-1.7,2.7-2.1,3.3c-0.5,0.2-0.8,0.4-1,0.4l-0.3,0c-0.6-0.4-0.8-1.1-0.8-2l0-0.4c0-1,0.2-2.7,0.6-5
				C49.2,90,49.6,89.1,50.2,89.1z"/>
			<path class="st2" d="M68.9,98.5c0.3-0.1,0.5-0.2,0.7-0.3s0.4-0.1,0.6,0.1c0.3,0.1,0.4,0.3,0.4,0.6s-0.2,0.5-0.5,0.8
				c-0.3,0.3-0.9,0.4-1.7,0.5s-1.5-0.4-2-1.4c-0.2-0.3-0.3-0.5-0.4-0.7c-0.6,0.6-1.3,1.1-2,1.6c-0.6,0.2-1.1,0.3-1.5,0.2
				c-0.9-0.2-1.4-1-1.4-2.4L61,97c0.3-1.6,0.8-3,1.6-4.2c0.4-0.6,0.9-1.4,1.8-2.2c0.8-0.6,1.6-0.9,2.5-0.7c0.8,0.1,1.2,0.6,1.2,1.5
				c0,0.8-0.1,1.7-0.2,2.6c-0.3,1.6-0.4,2.7-0.3,3.2s0.3,0.8,0.5,1.1C68.3,98.5,68.6,98.6,68.9,98.5z M66.1,91.9
				c-0.3,0.1-0.7,0.4-1.2,0.8c-0.5,0.4-1,1.3-1.5,2.5c-0.5,1.2-0.7,2.1-0.5,2.6l0.3,0.1c0.1,0,0.3,0,0.5-0.1c0.2-0.1,0.5-0.4,1-0.9
				c0.5-0.5,0.9-1.1,1-1.9C65.9,94.1,66,93.1,66.1,91.9z"/>
			<path class="st2" d="M73.5,87.5c0.5-0.7,1-0.9,1.5-0.8c0.4,0.1,0.7,0.5,0.6,1.1c0,0.5-0.2,0.8-0.7,0.8c-0.4,0.3-0.7,1.1-1,2.1
				l0.6-0.2c0.5-0.1,0.9-0.2,1.2-0.2c0.5,0.1,0.7,0.4,0.5,0.9c-0.2,0.5-1.2,1-2.8,1.4c0,0,0,0.1-0.1,0.2c-0.2,1.1-0.4,2.2-0.4,3.3
				s0,1.8,0.3,2.1c0.2,0.3,0.5,0.4,0.9,0.3c0.3-0.1,0.6-0.3,0.9-0.5c0.2-0.2,0.5-0.3,0.9-0.3c0.3,0,0.5,0.3,0.5,0.8
				c-0.1,0.4-0.3,0.8-0.7,1.2c-0.8,0.5-1.5,0.8-2.4,0.7c-0.8-0.1-1.4-0.5-1.7-1.2c-0.3-0.7-0.5-1.5-0.5-2.5c0-1,0.1-2.3,0.5-4
				c-1.6,0.1-2.4-0.2-2.4-0.9c0-0.6,0.9-0.9,2.7-0.8l0.5-1.4C72.6,88.9,73,88.1,73.5,87.5z"/>
			<path class="st2" d="M80.1,90.2c0.9-0.1,1.4,0.5,1.4,1.7c0.1,1.3-0.9,3-3,5.2l-0.2,0.3l0,0.1c-0.1,0.6,0.2,1,0.9,1.1
				c0.7,0.1,1.2,0.1,1.6,0c0.4-0.1,0.8-0.3,1.1-0.6c0.3-0.3,0.5-0.3,0.7-0.1c0.2,0.2,0.3,0.4,0.3,0.7c0,0.3-0.3,0.6-0.8,1
				c-0.5,0.4-1.4,0.6-2.4,0.7c-1.1,0.1-1.9-0.2-2.3-0.9c-0.5-0.7-0.7-1.1-0.8-1.1c-0.2,0.2-0.5,0.2-0.7-0.1c-0.2-0.3-0.2-0.5,0-0.8
				c0.2-0.3,0.4-0.5,0.5-0.6c0.1-0.1,0.2-0.3,0.2-0.4c0-1.9,0.4-3.4,1.2-4.4C78.3,90.9,79.2,90.3,80.1,90.2z M79.3,93.9
				c0.3-0.6,0.5-1,0.6-1.4c0-0.3-0.1-0.4-0.6,0c-0.4,0.4-0.9,1.5-1.3,3.4C78.5,95.1,78.9,94.4,79.3,93.9z"/>
			<path class="st2" d="M86.1,90.4c1,0.2,1.5,0.6,1.5,1.3c-0.1,0.5-0.4,0.7-0.9,0.7L86,92.2l-0.3,0c-0.3,0-0.8,0.3-1.5,0.8
				c-0.2,0.5-0.4,0.8-0.4,1l0,0.1c0,0.1,0.3,0.4,0.9,0.9c0.7,0.4,1,0.6,1,0.6c1.5-1.5,2.6-2.2,3.1-2.2c0.5,0,0.7,0.3,0.5,0.9
				c-0.2,0.5-0.5,1-1.1,1.4c-0.5,0.4-0.9,0.7-1.1,1c0.4,0.8,0.5,1.6,0.2,2.3c-0.3,0.8-0.7,1.4-1.2,1.8c-0.5,0.4-1.1,0.7-1.9,0.8
				l-0.4,0c-1-0.2-1.5-0.7-1.4-1.5c0.1-0.9,0.8-1.9,2-3L84,96.7c-0.9-0.4-1.5-1-2-1.9l-0.1-0.8c0-0.9,0.6-1.7,1.6-2.6
				C84.2,90.7,85.1,90.4,86.1,90.4z M85.5,99.4c0.4-0.3,0.5-0.6,0.5-0.9c0-0.3,0-0.4-0.1-0.4c-0.1,0-0.3,0.1-0.7,0.4
				c-0.4,0.3-0.7,0.7-0.8,1.2C84.8,99.8,85.1,99.7,85.5,99.4z"/>
		</g>
	</g>
	<g>
		<g class="st3">
			<path class="st2" d="M39.5,105.9c0.6,0,0.9,0.4,0.7,1.2c-0.1,0.7-0.5,2-1.2,3.8c-0.5,2.3-0.9,4-1.1,5l0.1-0.2
				c1.5-1.9,2.5-2.7,3.2-2.6c0.6,0.1,0.8,0.9,0.8,2.4c0.2,2.7,0.4,4.1,0.4,4.4l0.2,0.3l-0.2,0.8l-0.7,0.1c-0.5-0.1-0.9-0.6-1.3-1.6
				c0-0.5,0-1.3,0-2.3s-0.2-1.4-0.5-1.2s-0.9,1.2-1.7,2.7c-0.5,1.7-1.1,2.5-1.6,2.4l-0.2,0c-0.7-0.1-0.9-1-0.6-2.6
				c0.8-3.4,1-4.8,0.6-4.3c-0.4,0.5-0.7,0.7-1.1,0.7c-0.4-0.1-0.6-0.2-0.6-0.5c0-0.3,0.1-0.7,0.5-1.3c0.4-0.6,0.8-1.2,1.3-2
				c0.3-0.5,0.7-1.1,1-1.9c0.3-0.7,0.5-1.5,0.7-2.3C38.5,106.2,38.9,105.8,39.5,105.9z"/>
			<path class="st2" d="M49.7,111.4l0.4,0.1c0.4,0.5,0.5,1.8,0.2,3.9c-0.3,2.1-0.8,3.6-1.5,4.7c-0.7,1.1-1.7,1.4-2.8,1.2
				c-1.1-0.3-1.8-1.2-2-2.7c-0.2-1.5-0.1-3.1,0.2-4.7c0.3-1.6,0.8-2.4,1.3-2.3l0,0c0.6,0.1,0.8,1.2,0.4,3.1
				c-0.3,1.5-0.3,2.6-0.1,3.4c0.2,0.8,0.5,1.2,0.8,1.3c0.6,0.2,1.2-0.4,1.6-1.6c0.4-1.2,0.6-2.7,0.7-4.4c0-0.6,0-1.1,0.1-1.3
				C49,111.7,49.3,111.5,49.7,111.4z"/>
			<path class="st2" d="M55.3,111.3c0.9-0.1,1.4,0.5,1.4,1.7c0.1,1.3-0.9,3-3,5.2l-0.2,0.3l0,0.1c-0.1,0.6,0.2,1,0.9,1.1
				s1.2,0.1,1.6,0c0.4-0.1,0.8-0.3,1.1-0.6c0.3-0.3,0.5-0.3,0.7-0.1s0.3,0.4,0.3,0.7c0,0.3-0.3,0.6-0.8,1c-0.5,0.4-1.4,0.6-2.4,0.7
				c-1.1,0.1-1.9-0.2-2.3-0.9c-0.5-0.7-0.7-1.1-0.8-1.1c-0.2,0.2-0.5,0.2-0.7-0.1c-0.2-0.3-0.2-0.5,0-0.8c0.2-0.3,0.4-0.5,0.5-0.6
				c0.1-0.1,0.2-0.3,0.2-0.4c0-1.9,0.4-3.4,1.2-4.4C53.5,112,54.4,111.4,55.3,111.3z M54.5,115c0.3-0.6,0.5-1,0.6-1.4
				c0-0.3-0.1-0.4-0.6,0c-0.4,0.4-0.9,1.5-1.3,3.4C53.7,116.2,54.1,115.5,54.5,115z"/>
			<path class="st2" d="M62.7,110.4c0.6,0,1,0.4,0.9,1.1c-0.1,1.5-0.4,3.3-0.9,5.5c-0.6,2.2-1.1,3.5-1.5,4c-0.5,0.5-1,0.8-1.5,0.9
				c-0.7,0-1.3-2-1.8-5.8c-0.4-1.5-0.5-2.5-0.4-2.9c0.1-0.4,0.5-0.6,1-0.7c0.6-0.1,0.9,0.5,1.1,1.7c0.2,1.2,0.3,2.9,0.6,5.2
				c1-3.9,1.5-6.5,1.5-7.6l0-0.2C61.8,110.8,62.1,110.4,62.7,110.4z"/>
			<path class="st2" d="M67.9,112.5c0.4,0.1,0.8,0.7,1.3,2c0.4,1.2,0.6,2.6,0.4,3.9c-0.2,1.4-0.7,2.3-1.5,2.9s-1.6,0.8-2.3,0.8
				c-1.2-0.1-2-0.7-2.4-1.9l-0.1-0.5c0.3-2,0.7-3.5,1.3-4.6s1.2-1.8,1.8-2.1C67,112.6,67.5,112.4,67.9,112.5z M65.2,119.3
				c0,0.4,0.1,0.7,0.4,0.9c0,0,0.1,0,0.3,0c0.3,0,0.7-0.2,1.2-0.5c0.5-0.4,0.8-1.1,0.8-2.3c0.1-1.1-0.1-2-0.5-2.6
				c-0.1-0.1-0.1-0.1-0.2-0.1c-0.5,0-1.1,0.8-1.7,2.5C65.3,117.8,65.2,118.5,65.2,119.3z"/>
			<path class="st2" d="M74.4,112.1c1,0.2,1.5,0.6,1.5,1.3c-0.1,0.5-0.4,0.7-0.9,0.7l-0.7-0.1l-0.3,0c-0.3,0-0.8,0.3-1.5,0.8
				c-0.2,0.5-0.4,0.8-0.4,1l0,0.1c0,0.1,0.3,0.4,0.9,0.9c0.7,0.4,1,0.6,1,0.6c1.5-1.5,2.6-2.2,3.1-2.2c0.5,0,0.7,0.3,0.5,0.9
				c-0.2,0.5-0.5,1-1.1,1.4c-0.5,0.4-0.9,0.7-1.1,1c0.4,0.8,0.5,1.6,0.2,2.3c-0.3,0.8-0.7,1.4-1.2,1.8c-0.5,0.4-1.1,0.7-1.9,0.8
				l-0.4,0c-1-0.2-1.5-0.7-1.4-1.5c0.1-0.9,0.8-1.9,2-3l-0.5-0.4c-0.9-0.4-1.5-1-2-1.9l-0.1-0.8c0-0.9,0.6-1.7,1.6-2.6
				C72.5,112.4,73.4,112,74.4,112.1z M73.7,121.1c0.4-0.3,0.5-0.6,0.5-0.9c0-0.3,0-0.4-0.1-0.4c-0.1,0-0.3,0.1-0.7,0.4
				c-0.4,0.3-0.7,0.7-0.8,1.2C73,121.5,73.4,121.4,73.7,121.1z"/>
		</g>
	</g>
	<g>
		<g class="st3">
			<path class="st2" d="M42.7,139.3c0.3-0.1,0.5-0.2,0.7-0.3c0.2-0.1,0.4-0.1,0.6,0.1c0.3,0.1,0.4,0.3,0.4,0.6s-0.2,0.5-0.5,0.8
				c-0.3,0.3-0.9,0.4-1.7,0.5c-0.8,0-1.5-0.4-2-1.4c-0.2-0.3-0.3-0.5-0.4-0.7c-0.6,0.6-1.3,1.1-2,1.6c-0.6,0.2-1.1,0.3-1.5,0.2
				c-0.9-0.2-1.4-1-1.4-2.4l0.1-0.3c0.3-1.6,0.8-3,1.6-4.2c0.4-0.6,0.9-1.4,1.8-2.2c0.8-0.6,1.6-0.9,2.5-0.7
				c0.8,0.1,1.2,0.6,1.2,1.5c0,0.8-0.1,1.7-0.2,2.6c-0.3,1.6-0.4,2.7-0.3,3.2c0.1,0.5,0.3,0.8,0.5,1.1
				C42.2,139.4,42.4,139.4,42.7,139.3z M39.9,132.7c-0.3,0.1-0.7,0.4-1.2,0.8c-0.5,0.4-1,1.3-1.5,2.5c-0.5,1.2-0.7,2.1-0.5,2.6
				l0.3,0.1c0.1,0,0.3,0,0.5-0.1c0.2-0.1,0.5-0.4,1-0.9c0.5-0.5,0.9-1.1,1-1.9C39.7,135,39.9,134,39.9,132.7z"/>
			<path class="st2" d="M49.1,129.7c0.6,0,1,0.4,0.9,1.1c-0.1,1.5-0.4,3.3-0.9,5.5c-0.6,2.2-1.1,3.5-1.5,4c-0.5,0.5-1,0.8-1.5,0.9
				c-0.7,0-1.3-2-1.8-5.8c-0.4-1.5-0.5-2.5-0.4-2.9c0.1-0.4,0.5-0.6,1-0.7c0.6-0.1,0.9,0.5,1.1,1.7c0.2,1.2,0.3,2.9,0.6,5.2
				c1-3.9,1.5-6.5,1.5-7.6l0-0.2C48.2,130,48.5,129.6,49.1,129.7z"/>
			<path class="st2" d="M53.7,131c0.9-0.1,1.4,0.5,1.4,1.7c0.1,1.3-0.9,3-3,5.2l-0.2,0.3l0,0.1c-0.1,0.6,0.2,1,0.9,1.1
				c0.7,0.1,1.2,0.1,1.6,0c0.4-0.1,0.8-0.3,1.1-0.6c0.3-0.3,0.5-0.3,0.7-0.1c0.2,0.2,0.3,0.4,0.3,0.7c0,0.3-0.3,0.6-0.8,1
				c-0.5,0.4-1.4,0.6-2.4,0.7c-1.1,0.1-1.9-0.2-2.3-0.9c-0.5-0.7-0.7-1.1-0.8-1.1c-0.2,0.2-0.5,0.2-0.7-0.1c-0.2-0.3-0.2-0.5,0-0.8
				c0.2-0.3,0.4-0.5,0.5-0.6c0.1-0.1,0.2-0.3,0.2-0.4c0-1.9,0.4-3.4,1.2-4.4C51.9,131.8,52.8,131.2,53.7,131z M52.9,134.7
				c0.3-0.6,0.5-1,0.6-1.4c0-0.3-0.1-0.4-0.6,0c-0.4,0.4-0.9,1.5-1.3,3.4C52.1,135.9,52.5,135.3,52.9,134.7z"/>
			<path class="st2" d="M58.6,131.2c0.6,0,1,0.4,0.9,1.2l-0.7,1.9c-0.4,1-0.7,2-0.9,2.8l1.3-2.4c0.5-0.9,1-1.6,1.3-2.2
				c0.3-0.6,0.8-0.8,1.4-0.5s0.8,1.7,0.6,4.4c0,0.6,0,1.3,0.2,2.1c0.1,0.3,0.3,0.4,0.6,0.4c0.4,0,0.8-0.1,1.1-0.2
				c0.3-0.2,0.6,0,0.8,0.6c0.2,0.6-0.1,1-0.9,1.3c-0.6,0.2-1.1,0.3-1.4,0.3c-1.1,0-1.8-0.5-2.1-1.5c-0.2-0.9-0.3-2-0.1-3.1
				c0.2-1.1,0-1.1-0.6,0l-2.4,4.1c-0.3,0.4-0.6,0.7-1,1.1l-0.3,0c-0.4,0-0.7-0.5-0.8-1.3c0.7-3.5,1.3-5.9,1.9-7.3
				C57.6,131.7,58,131.2,58.6,131.2z"/>
			<path class="st2" d="M72.3,140.6c0.3-0.1,0.5-0.2,0.7-0.3c0.2-0.1,0.4-0.1,0.6,0.1c0.3,0.1,0.4,0.3,0.4,0.6s-0.2,0.5-0.5,0.8
				c-0.3,0.3-0.9,0.4-1.7,0.5c-0.8,0-1.5-0.4-2-1.4c-0.2-0.3-0.3-0.5-0.4-0.7c-0.6,0.6-1.3,1.1-2,1.6c-0.6,0.2-1.1,0.3-1.5,0.2
				c-0.9-0.2-1.4-1-1.4-2.4l0.1-0.3c0.3-1.6,0.8-3,1.6-4.2c0.4-0.6,0.9-1.4,1.8-2.2c0.8-0.6,1.6-0.9,2.5-0.7
				c0.8,0.1,1.2,0.6,1.2,1.5s-0.1,1.7-0.2,2.6c-0.3,1.6-0.4,2.7-0.3,3.2c0.1,0.5,0.3,0.8,0.5,1.1C71.8,140.7,72,140.7,72.3,140.6z
				 M69.5,134c-0.3,0.1-0.7,0.4-1.2,0.8c-0.5,0.4-1,1.3-1.5,2.5c-0.5,1.2-0.7,2.1-0.5,2.6l0.3,0.1c0.1,0,0.3,0,0.5-0.1
				c0.2-0.1,0.5-0.4,1-0.9c0.5-0.5,0.9-1.1,1-1.9C69.3,136.2,69.4,135.2,69.5,134z"/>
		</g>
	</g>
	<g>
		<g class="st3">
			<path class="st2" d="M37.1,151.8c1.7-0.3,2.6,0.1,2.9,1c0.2,1,0.1,2.2-0.4,3.7c-0.5,1.5-1.3,2.6-2.4,3.4s-1.8,1.2-2.4,1.1
				l-0.7,3.8l-0.1,0.4l0,0c0,0.3-0.2,0.5-0.5,0.7c-0.3,0.2-0.5,0.2-0.6,0.2c-0.1,0-0.3-0.1-0.6-0.3c-0.2-0.2-0.3-0.5-0.3-1l0,0
				c0.1-1.1,0.6-3.9,1.3-8.3c0.3-1.3,0.6-2.5,0.8-3.4C34.5,152.6,35.4,152.1,37.1,151.8z M35,159.3c1-0.5,1.6-1,1.9-1.4
				c0.3-0.4,0.6-0.9,0.9-1.4c0.2-0.6,0.4-1.2,0.5-2s-0.3-1-1.1-0.9c-0.8,0.2-1.2,0.5-1.4,1L35,159.3z"/>
			<path class="st2" d="M42.9,147.5l0.3,0c0.5,0.3,0.8,0.7,0.7,1.2c-0.6,4.4-1,7.8-1.1,10.2l-0.1,2c0,0.5-0.3,0.8-0.9,1
				c-0.8,0-1.1-0.9-1-2.4l0-0.2c0.2-2.7,0.6-6.4,1.2-10.9C42.3,147.7,42.6,147.5,42.9,147.5z"/>
			<path class="st2" d="M52.5,160.7c0.3-0.1,0.5-0.2,0.7-0.3c0.2-0.1,0.4-0.1,0.6,0.1c0.3,0.1,0.4,0.3,0.4,0.6s-0.2,0.5-0.5,0.8
				c-0.3,0.3-0.9,0.4-1.7,0.5c-0.8,0-1.5-0.4-2-1.4c-0.2-0.3-0.3-0.5-0.4-0.7c-0.6,0.6-1.3,1.1-2,1.6c-0.6,0.2-1.1,0.3-1.5,0.2
				c-0.9-0.2-1.4-1-1.4-2.4l0.1-0.3c0.3-1.6,0.8-3,1.6-4.2c0.4-0.6,0.9-1.4,1.8-2.2c0.8-0.6,1.6-0.9,2.5-0.7
				c0.8,0.1,1.2,0.6,1.2,1.5c0,0.8-0.1,1.7-0.2,2.6c-0.3,1.6-0.4,2.7-0.3,3.2c0.1,0.5,0.3,0.8,0.5,1.1
				C51.9,160.8,52.2,160.8,52.5,160.7z M49.7,154.1c-0.3,0.1-0.7,0.4-1.2,0.8c-0.5,0.4-1,1.3-1.5,2.5c-0.5,1.2-0.7,2.1-0.5,2.6
				l0.3,0.1c0.1,0,0.3,0,0.5-0.1c0.2-0.1,0.5-0.4,1-0.9c0.5-0.5,0.9-1.1,1-1.9C49.5,156.3,49.6,155.3,49.7,154.1z M52.8,148.8
				L52.8,148.8c0.5,0.3,0.2,0.7-0.6,1.3l-0.1,0.1c-1.1,0.6-1.8,0.8-2.1,0.4c-0.1-0.4,0-0.7,0.3-1c0.1,0,0.3-0.1,0.4-0.1
				s0.5-0.3,1.1-0.7C52.1,148.4,52.5,148.4,52.8,148.8z"/>
			<path class="st2" d="M57.1,149.7c0.5-0.7,1-0.9,1.5-0.8c0.4,0.1,0.7,0.5,0.6,1.1c0,0.5-0.2,0.8-0.7,0.8c-0.4,0.3-0.7,1.1-1,2.1
				l0.6-0.2c0.5-0.1,0.9-0.2,1.2-0.2c0.5,0.1,0.7,0.4,0.5,0.9s-1.2,1-2.8,1.4c0,0,0,0.1-0.1,0.2c-0.2,1.1-0.4,2.2-0.4,3.3
				c-0.1,1.1,0,1.8,0.3,2.1c0.2,0.3,0.5,0.4,0.9,0.3c0.3-0.1,0.6-0.3,0.9-0.5c0.2-0.2,0.5-0.3,0.9-0.3c0.3,0,0.5,0.3,0.5,0.8
				c-0.1,0.4-0.3,0.8-0.7,1.2c-0.8,0.5-1.5,0.8-2.4,0.7c-0.8-0.1-1.4-0.5-1.7-1.2c-0.3-0.7-0.5-1.5-0.5-2.5c0-1,0.1-2.3,0.5-4
				c-1.6,0.1-2.4-0.2-2.4-0.9s0.9-0.9,2.7-0.8l0.5-1.4C56.2,151.1,56.6,150.4,57.1,149.7z"/>
			<path class="st2" d="M67.5,161.4c0.3-0.1,0.5-0.2,0.7-0.3s0.4-0.1,0.6,0.1c0.3,0.1,0.4,0.3,0.4,0.6s-0.2,0.5-0.5,0.8
				c-0.3,0.3-0.9,0.4-1.7,0.5c-0.8,0-1.5-0.4-2-1.4c-0.2-0.3-0.3-0.5-0.4-0.7c-0.6,0.6-1.3,1.1-2,1.6c-0.6,0.2-1.1,0.3-1.5,0.2
				c-0.9-0.2-1.4-1-1.4-2.4l0.1-0.3c0.3-1.6,0.8-3,1.6-4.2c0.4-0.6,0.9-1.4,1.8-2.2c0.8-0.6,1.6-0.9,2.5-0.7
				c0.8,0.1,1.2,0.6,1.2,1.5c0,0.8-0.1,1.7-0.2,2.6c-0.3,1.6-0.4,2.7-0.3,3.2c0.1,0.5,0.3,0.8,0.5,1.1
				C66.9,161.4,67.2,161.5,67.5,161.4z M64.7,154.8c-0.3,0.1-0.7,0.4-1.2,0.8c-0.5,0.4-1,1.3-1.5,2.5c-0.5,1.2-0.7,2.1-0.5,2.6
				l0.3,0.1c0.1,0,0.3,0,0.5-0.1c0.2-0.1,0.5-0.4,1-0.9c0.5-0.5,0.9-1.1,1-1.9C64.5,157,64.6,156,64.7,154.8z"/>
			<path class="st2" d="M71.3,152.8c0.6,0,1,0.4,0.9,1.2l-0.7,1.9c-0.4,1-0.7,2-0.9,2.8l1.3-2.3c0.5-0.9,1-1.6,1.3-2.2
				c0.3-0.6,0.8-0.8,1.4-0.5c0.6,0.3,0.8,1.7,0.6,4.4c0,0.6,0,1.3,0.2,2.1c0.1,0.3,0.3,0.4,0.6,0.4c0.4,0,0.8-0.1,1.1-0.2
				c0.3-0.2,0.6,0,0.8,0.6c0.2,0.6-0.1,1-0.9,1.3c-0.6,0.2-1.1,0.3-1.4,0.3c-1.1,0-1.8-0.5-2.1-1.5c-0.2-0.9-0.3-2-0.1-3.1
				c0.2-1.1,0-1.1-0.6,0l-2.4,4.1c-0.3,0.4-0.6,0.7-1,1.1l-0.3,0c-0.4,0-0.7-0.5-0.8-1.3c0.7-3.5,1.3-5.9,1.9-7.3
				C70.3,153.3,70.8,152.7,71.3,152.8z"/>
			<path class="st2" d="M81.8,153.9c0.4,0.1,0.8,0.7,1.3,2c0.4,1.2,0.6,2.6,0.4,3.9c-0.2,1.4-0.7,2.3-1.5,2.9
				c-0.9,0.5-1.6,0.8-2.3,0.8c-1.2-0.1-2-0.7-2.4-1.9l-0.1-0.5c0.3-2,0.7-3.5,1.3-4.6s1.2-1.8,1.8-2.1S81.4,153.8,81.8,153.9z
				 M79.1,160.7c0,0.4,0.1,0.7,0.4,0.9c0,0,0.1,0,0.3,0c0.3,0,0.7-0.2,1.2-0.5c0.5-0.4,0.8-1.1,0.8-2.3c0.1-1.1-0.1-2-0.5-2.6
				c-0.1-0.1-0.1-0.1-0.2-0.1c-0.5,0-1.1,0.8-1.7,2.5C79.3,159.2,79.2,159.9,79.1,160.7z"/>
			<path class="st2" d="M88.3,153.4c1,0.2,1.5,0.6,1.5,1.3c-0.1,0.5-0.4,0.7-0.9,0.7l-0.7-0.1l-0.3,0c-0.3,0-0.8,0.3-1.5,0.8
				c-0.2,0.5-0.4,0.8-0.4,1l0,0.1c0,0.1,0.3,0.4,0.9,0.9c0.7,0.4,1,0.6,1,0.6c1.5-1.5,2.6-2.2,3.1-2.2c0.5,0,0.7,0.3,0.5,0.9
				c-0.2,0.5-0.5,1-1.1,1.4c-0.5,0.4-0.9,0.7-1.1,1c0.4,0.8,0.5,1.6,0.2,2.3c-0.3,0.8-0.7,1.4-1.2,1.8c-0.5,0.4-1.1,0.7-1.9,0.8
				l-0.4,0c-1-0.2-1.5-0.7-1.4-1.5c0.1-0.9,0.8-1.9,2-3l-0.5-0.4c-0.9-0.4-1.5-1-2-1.9l-0.1-0.8c0-0.9,0.6-1.7,1.6-2.6
				C86.4,153.8,87.3,153.4,88.3,153.4z M87.7,162.5c0.4-0.3,0.5-0.6,0.5-0.9c0-0.3,0-0.4-0.1-0.4c-0.1,0-0.3,0.1-0.7,0.4
				c-0.4,0.3-0.7,0.7-0.8,1.2C87,162.9,87.3,162.8,87.7,162.5z"/>
		</g>
	</g>
	<g>
		<g class="st3">
			<path class="st2" d="M42.3,182.5c0.3-0.1,0.5-0.2,0.7-0.3c0.2-0.1,0.4-0.1,0.6,0.1c0.3,0.1,0.4,0.3,0.4,0.6s-0.2,0.5-0.5,0.8
				c-0.3,0.3-0.9,0.4-1.7,0.5c-0.8,0-1.5-0.4-2-1.4c-0.2-0.3-0.3-0.5-0.4-0.7c-0.6,0.6-1.3,1.1-2,1.6c-0.6,0.2-1.1,0.3-1.5,0.2
				c-0.9-0.2-1.4-1-1.4-2.4l0.1-0.3c0.3-1.6,0.8-3,1.6-4.2c0.4-0.6,0.9-1.4,1.8-2.2c0.8-0.6,1.6-0.9,2.5-0.7
				c0.8,0.1,1.2,0.6,1.2,1.5c0,0.8-0.1,1.7-0.2,2.6c-0.3,1.6-0.4,2.7-0.3,3.2c0.1,0.5,0.3,0.8,0.5,1.1
				C41.8,182.6,42,182.6,42.3,182.5z M39.6,175.9c-0.3,0.1-0.7,0.4-1.2,0.8c-0.5,0.4-1,1.3-1.5,2.5c-0.5,1.2-0.7,2.1-0.5,2.6
				l0.3,0.1c0.1,0,0.3,0,0.5-0.1c0.2-0.1,0.5-0.4,1-0.9c0.5-0.5,0.9-1.1,1-1.9C39.4,178.2,39.5,177.1,39.6,175.9z"/>
			<path class="st2" d="M47,171.5c0.5-0.7,1-0.9,1.5-0.8c0.4,0.1,0.7,0.5,0.6,1.1c0,0.5-0.2,0.8-0.7,0.8c-0.4,0.3-0.7,1.1-1,2.1
				l0.6-0.2c0.5-0.1,0.9-0.2,1.2-0.2c0.5,0.1,0.7,0.4,0.5,0.9c-0.2,0.5-1.2,1-2.8,1.4c0,0,0,0.1-0.1,0.2c-0.2,1.1-0.4,2.2-0.4,3.3
				c-0.1,1.1,0,1.8,0.3,2.1c0.2,0.3,0.5,0.4,0.9,0.3c0.3-0.1,0.6-0.2,0.9-0.5c0.2-0.2,0.5-0.3,0.9-0.3s0.5,0.3,0.5,0.8
				c-0.1,0.4-0.3,0.8-0.7,1.2c-0.8,0.5-1.5,0.8-2.4,0.7c-0.8-0.1-1.4-0.5-1.7-1.2c-0.3-0.7-0.5-1.5-0.5-2.5c0-1,0.1-2.3,0.5-4
				c-1.6,0.1-2.4-0.2-2.4-0.9c0-0.6,0.9-0.9,2.7-0.8l0.5-1.4C46.1,172.9,46.4,172.2,47,171.5z"/>
			<path class="st2" d="M55.6,174.7l0.4,0.1c0.4,0.5,0.5,1.8,0.2,3.9c-0.3,2.1-0.8,3.6-1.5,4.7c-0.7,1.1-1.7,1.4-2.8,1.2
				c-1.1-0.3-1.8-1.2-2-2.7s-0.1-3.1,0.2-4.7c0.3-1.6,0.8-2.4,1.3-2.3l0,0c0.6,0.1,1,0.8,1.2,1.9c-0.4,0.3-0.7,0.7-0.8,1.3
				c-0.3,1.5-0.3,2.6-0.1,3.4c0.2,0.8,0.5,1.2,0.8,1.3c0.6,0.2,1.2-0.4,1.6-1.6c0.4-1.2,0.6-2.7,0.7-4.4c0-0.6,0-1.1,0.1-1.3
				C54.9,175,55.2,174.8,55.6,174.7z M56.8,171L56.8,171c0.5,0.3,0.2,0.7-0.6,1.3l-0.1,0.1c-1.1,0.6-1.8,0.8-2.1,0.4
				c-0.1-0.4,0-0.7,0.3-1c0.1,0,0.3-0.1,0.4-0.1c0.2-0.1,0.5-0.3,1.1-0.7C56.2,170.7,56.5,170.7,56.8,171z"/>
			<path class="st2" d="M60.2,174.5c0.6,0,1,0.4,0.9,1.2l-0.7,1.9c-0.4,1-0.7,2-0.9,2.8l1.3-2.4c0.5-0.9,1-1.6,1.3-2.2
				s0.8-0.8,1.4-0.5c0.6,0.3,0.8,1.7,0.6,4.4c0,0.6,0,1.3,0.2,2.1c0.1,0.3,0.3,0.4,0.6,0.4c0.4,0,0.8-0.1,1.1-0.2
				c0.3-0.2,0.6,0,0.8,0.6c0.2,0.6-0.1,1-0.9,1.3c-0.6,0.2-1.1,0.3-1.4,0.3c-1.1,0-1.8-0.5-2.1-1.5c-0.2-0.9-0.3-2-0.1-3.1
				c0.2-1.1,0-1.1-0.6,0l-2.4,4.1c-0.3,0.4-0.6,0.7-1,1.1l-0.3,0c-0.4,0-0.7-0.5-0.8-1.3c0.7-3.5,1.3-5.9,1.9-7.3
				C59.3,175,59.7,174.5,60.2,174.5z"/>
		</g>
	</g>
	<path class="st4" d="M100.4,106.7c-3.3,1.2-5.8,3.7-8,6.3c-2,2.4-3.9,5.2-5.2,8.1c-0.1-0.1-0.1-0.2-0.2-0.3
		c-0.4-0.6-0.7-1.2-0.9-1.8c-0.5-1.2-0.7-2.5-0.8-3.8c0-1.4-2.2-1.5-2.2,0s0.3,3.1,0.8,4.5c0.4,1.1,1.2,3.2,2.5,3.5
		c0.6,0.1,1.2-0.2,1.2-0.9v-0.1c0.8-1.3,1.5-2.7,2.3-4.1c0.9-1.5,1.8-3,2.9-4.4c2.1-2.7,4.8-4.8,7.7-6.5
		C101.1,107.2,100.9,106.5,100.4,106.7z"/>
	<path class="st4" d="M114.4,147.4c-3.3,1.2-5.8,3.7-8,6.3c-2,2.4-3.9,5.2-5.2,8.1c-0.1-0.1-0.1-0.2-0.2-0.3
		c-0.4-0.6-0.7-1.2-0.9-1.8c-0.5-1.2-0.7-2.5-0.8-3.8c0-1.4-2.2-1.5-2.2,0s0.3,3.1,0.8,4.5c0.4,1.1,1.2,3.2,2.5,3.5
		c0.6,0.1,1.2-0.2,1.2-0.9v-0.1c0.8-1.3,1.5-2.7,2.3-4.1c0.9-1.5,1.8-3,2.9-4.4c2.1-2.7,4.8-4.8,7.7-6.5
		C115.1,147.9,114.9,147.3,114.4,147.4z"/>
</g>
</svg>
