<?xml version="1.0" encoding="utf-8"?>
<!-- Generator: Adobe Illustrator 22.0.1, SVG Export Plug-In . SVG Version: 6.00 Build 0)  -->
<svg version="1.1" id="Layer_1" xmlns="http://www.w3.org/2000/svg" xmlns:xlink="http://www.w3.org/1999/xlink" x="0px" y="0px"
	 viewBox="0 0 33.1 32.2" style="enable-background:new 0 0 33.1 32.2;" xml:space="preserve">
<style type="text/css">
	.st0{fill:#88BD00;}
</style>
<g>
	<g>
		<path class="st0" d="M22.7,31.5H10.4c-5.5,0-9.9-4.5-9.9-9.9V10.7c0-5.5,4.5-9.9,9.9-9.9h12.3c5.5,0,9.9,4.5,9.9,9.9v10.9
			C32.6,27,28.2,31.5,22.7,31.5z M10.4,3c-4.3,0-7.7,3.5-7.7,7.7v10.9c0,4.3,3.5,7.7,7.7,7.7h12.3c4.3,0,7.7-3.5,7.7-7.7V10.7
			C30.4,6.4,27,3,22.7,3H10.4z"/>
	</g>
	<g>
		<path class="st0" d="M16.5,24.9c-4.9,0-8.8-4-8.8-8.8c0-4.9,4-8.8,8.8-8.8c4.9,0,8.8,4,8.8,8.8C25.4,21,21.4,24.9,16.5,24.9z
			 M16.5,9.5c-3.7,0-6.6,3-6.6,6.6c0,3.7,3,6.6,6.6,6.6c3.7,0,6.6-3,6.6-6.6C23.2,12.4,20.2,9.5,16.5,9.5z"/>
	</g>
	<g>
		<path class="st0" d="M27.1,7.5c0,1-0.8,1.8-1.8,1.8c-1,0-1.8-0.8-1.8-1.8c0-1,0.8-1.8,1.8-1.8C26.2,5.7,27.1,6.5,27.1,7.5z"/>
	</g>
</g>
</svg>
