<?xml version="1.0" encoding="utf-8"?>
<!-- Generator: Adobe Illustrator 22.0.1, SVG Export Plug-In . SVG Version: 6.00 Build 0)  -->
<svg version="1.1" id="Layer_1" xmlns="http://www.w3.org/2000/svg" xmlns:xlink="http://www.w3.org/1999/xlink" x="0px" y="0px"
	 viewBox="0 0 39.5 39.5" style="enable-background:new 0 0 39.5 39.5;" xml:space="preserve">
<style type="text/css">
	.st0{fill:#FFFFFF;}
</style>
<g>
	<path id="XMLID_1_" class="st0" d="M36.7,8.2L35.2,3c-0.1-0.3-0.4-0.4-0.7-0.4c-9.7,2.7-19.9,2.7-29.6,0C4.7,2.6,4.4,2.7,4.3,3
		L2.8,8.2C2.7,8.5,2.9,8.8,3.2,8.9C5,9.4,6.8,9.8,8.6,10.1v15c0,2,0.3,3.7,0.8,5.2c0.5,1.5,1.3,2.7,2.3,3.7c1,1,2.1,1.7,3.5,2.2
		c1.4,0.5,2.9,0.7,4.5,0.7c1.7,0,3.2-0.2,4.6-0.7c1.4-0.5,2.6-1.2,3.6-2.2c1-1,1.7-2.2,2.3-3.7c0.5-1.5,0.8-3.2,0.8-5.2v-15
		c1.8-0.3,3.6-0.7,5.4-1.2C36.6,8.8,36.8,8.5,36.7,8.2z M24.9,25.3c0,2-0.5,3.5-1.4,4.6c-0.9,1-2.1,1.5-3.7,1.5
		c-1.6,0-2.9-0.5-3.8-1.5c-0.9-1-1.4-2.5-1.4-4.6V10.9c1.3,0.1,2.6,0.2,3.9,0.2c0.1,2.2,0.3,5.9,0.6,8.8c0.1,1.2,1.2,1.2,1.3,0
		c0.3-2.9,0.6-6.6,0.6-8.8c1.3,0,2.6-0.1,3.9-0.2V25.3z"/>
</g>
<g>
</g>
<g>
</g>
<g>
</g>
<g>
</g>
<g>
</g>
<g>
</g>
<g>
</g>
<g>
</g>
<g>
</g>
<g>
</g>
<g>
</g>
<g>
</g>
<g>
</g>
<g>
</g>
<g>
</g>
</svg>
