<?xml version="1.0" encoding="utf-8"?>
<!-- Generator: Adobe Illustrator 22.0.1, SVG Export Plug-In . SVG Version: 6.00 Build 0)  -->
<svg version="1.1" id="Layer_1" xmlns="http://www.w3.org/2000/svg" xmlns:xlink="http://www.w3.org/1999/xlink" x="0px" y="0px"
	 viewBox="0 0 46 46" style="enable-background:new 0 0 46 46;" xml:space="preserve">
<style type="text/css">
	.st0{fill:#88BD00;}
</style>
<g>
	<path class="st0" d="M24.6,14.3c-0.9-0.9-2.4-0.9-3.3,0c0,0,0,0,0,0l-6.5,6.5c-0.9,0.9-0.9,2.4,0,3.3c0.9,0.9,2.4,0.9,3.3,0
		l2.6-2.6v9.6c0,1.3,1,2.3,2.3,2.3c1.3,0,2.3-1,2.3-2.3v-9.6l2.6,2.6c0.9,0.9,2.4,0.9,3.3,0c0.9-0.9,0.9-2.4,0-3.3L24.6,14.3z
		 M42.9,11.5c-6.4-11-20.4-14.8-31.4-8.4C0.5,9.4-3.3,23.5,3.1,34.5c6.3,11,20.4,14.8,31.4,8.4C45.5,36.6,49.3,22.5,42.9,11.5
		L42.9,11.5z M32.2,38.9C23.4,44,12.2,41,7.1,32.2C2,23.4,5,12.2,13.8,7.1C22.6,2,33.9,5,38.9,13.8C44,22.6,41,33.9,32.2,38.9
		L32.2,38.9z M32.2,38.9"/>
</g>
<g>
</g>
<g>
</g>
<g>
</g>
<g>
</g>
<g>
</g>
<g>
</g>
<g>
</g>
<g>
</g>
<g>
</g>
<g>
</g>
<g>
</g>
<g>
</g>
<g>
</g>
<g>
</g>
<g>
</g>
</svg>
